<?xml version="1.0" encoding="UTF-8"?>
<svg xmlns="http://www.w3.org/2000/svg" xmlns:xlink="http://www.w3.org/1999/xlink" viewBox="0 0 366.36 85.28">
  <defs>
    <style>
      .cls-1 {
        fill: url(#linear-gradient-2);
      }

      .cls-2 {
        fill: url(#radial-gradient-9);
      }

      .cls-3 {
        fill: url(#Green_Gradient_Swatch-13);
      }

      .cls-4 {
        fill: url(#Green_Gradient_Swatch-2);
      }

      .cls-5 {
        fill: url(#Green_Gradient_Swatch-15);
      }

      .cls-6 {
        fill: url(#linear-gradient-4);
      }

      .cls-7 {
        fill: url(#radial-gradient-5);
      }

      .cls-8 {
        fill: url(#radial-gradient);
      }

      .cls-9 {
        fill: url(#radial-gradient-3);
      }

      .cls-10 {
        fill: url(#Green_Gradient_Swatch-10);
      }

      .cls-11 {
        fill: url(#linear-gradient-3);
      }

      .cls-12 {
        fill: url(#Green_Gradient_Swatch-5);
      }

      .cls-13 {
        fill: url(#Green_Gradient_Swatch-14);
      }

      .cls-14 {
        fill: url(#Green_Gradient_Swatch-6);
      }

      .cls-15 {
        fill: url(#radial-gradient-8);
      }

      .cls-16 {
        fill: url(#radial-gradient-2);
      }

      .cls-17 {
        fill: url(#radial-gradient-4);
      }

      .cls-18 {
        fill: url(#Green_Gradient_Swatch-3);
      }

      .cls-19 {
        fill: url(#Green_Gradient_Swatch-11);
      }

      .cls-20 {
        fill: url(#radial-gradient-6);
      }

      .cls-21 {
        fill: url(#radial-gradient-7);
      }

      .cls-22 {
        fill: url(#Green_Gradient_Swatch-7);
      }

      .cls-23 {
        fill: url(#Green_Gradient_Swatch-12);
      }

      .cls-24 {
        fill: url(#linear-gradient);
      }

      .cls-25 {
        fill: url(#Green_Gradient_Swatch-8);
      }

      .cls-26 {
        fill: url(#Green_Gradient_Swatch-4);
      }

      .cls-27 {
        fill: url(#Green_Gradient_Swatch);
      }

      .cls-28 {
        fill: url(#Green_Gradient_Swatch-9);
      }
    </style>
    <linearGradient id="Green_Gradient_Swatch" data-name="Green Gradient Swatch" x1="111.07" y1="56.38" x2="111.07" y2="74.53" gradientUnits="userSpaceOnUse">
      <stop offset="0" stop-color="#086b38"/>
      <stop offset=".52" stop-color="#4f9b3c"/>
      <stop offset="1" stop-color="#8dc541"/>
    </linearGradient>
    <linearGradient id="Green_Gradient_Swatch-2" data-name="Green Gradient Swatch" x1="130.5" x2="130.5" xlink:href="#Green_Gradient_Swatch"/>
    <linearGradient id="Green_Gradient_Swatch-3" data-name="Green Gradient Swatch" x1="150.15" x2="150.15" xlink:href="#Green_Gradient_Swatch"/>
    <linearGradient id="Green_Gradient_Swatch-4" data-name="Green Gradient Swatch" x1="165.3" y1="56.05" x2="165.3" y2="74.86" xlink:href="#Green_Gradient_Swatch"/>
    <linearGradient id="Green_Gradient_Swatch-5" data-name="Green Gradient Swatch" x1="177.79" x2="177.79" xlink:href="#Green_Gradient_Swatch"/>
    <linearGradient id="Green_Gradient_Swatch-6" data-name="Green Gradient Swatch" x1="192.6" y1="56.05" x2="192.6" y2="74.86" xlink:href="#Green_Gradient_Swatch"/>
    <linearGradient id="Green_Gradient_Swatch-7" data-name="Green Gradient Swatch" x1="211.2" y1="55.86" x2="211.2" xlink:href="#Green_Gradient_Swatch"/>
    <linearGradient id="Green_Gradient_Swatch-8" data-name="Green Gradient Swatch" x1="227.6" x2="227.6" y2="74.6" xlink:href="#Green_Gradient_Swatch"/>
    <linearGradient id="Green_Gradient_Swatch-9" data-name="Green Gradient Swatch" x1="249.82" y1="56.05" x2="249.82" xlink:href="#Green_Gradient_Swatch"/>
    <linearGradient id="Green_Gradient_Swatch-10" data-name="Green Gradient Swatch" x1="270.2" x2="270.2" xlink:href="#Green_Gradient_Swatch"/>
    <linearGradient id="Green_Gradient_Swatch-11" data-name="Green Gradient Swatch" x1="290.31" y1="56.19" x2="290.31" y2="74.6" xlink:href="#Green_Gradient_Swatch"/>
    <linearGradient id="Green_Gradient_Swatch-12" data-name="Green Gradient Swatch" x1="308.89" x2="308.89" xlink:href="#Green_Gradient_Swatch"/>
    <linearGradient id="Green_Gradient_Swatch-13" data-name="Green Gradient Swatch" x1="324.37" y1="55.86" x2="324.37" xlink:href="#Green_Gradient_Swatch"/>
    <linearGradient id="Green_Gradient_Swatch-14" data-name="Green Gradient Swatch" x1="340.91" x2="340.91" xlink:href="#Green_Gradient_Swatch"/>
    <linearGradient id="Green_Gradient_Swatch-15" data-name="Green Gradient Swatch" x1="356.66" x2="356.66" xlink:href="#Green_Gradient_Swatch"/>
    <radialGradient id="radial-gradient" cx="41.98" cy="14.8" fx="41.98" fy="14.8" r="12.32" gradientUnits="userSpaceOnUse">
      <stop offset="0" stop-color="#91c83e"/>
      <stop offset=".36" stop-color="#699f39"/>
      <stop offset=".78" stop-color="#417533"/>
      <stop offset="1" stop-color="#326632"/>
    </radialGradient>
    <radialGradient id="radial-gradient-2" cx="67.99" cy="23.62" fx="67.99" fy="23.62" r="57.26" xlink:href="#radial-gradient"/>
    <radialGradient id="radial-gradient-3" cx="37" cy="36.52" fx="37" fy="36.52" r="41.41" xlink:href="#radial-gradient"/>
    <radialGradient id="radial-gradient-4" cx="383.69" cy="118.09" fx="383.69" fy="118.09" r="57.26" gradientTransform="translate(412.17 179.74) rotate(-180)" gradientUnits="userSpaceOnUse">
      <stop offset="0" stop-color="#1f9dd9"/>
      <stop offset="1" stop-color="#272971"/>
    </radialGradient>
    <radialGradient id="radial-gradient-5" cx="352.71" cy="130.99" fx="352.71" fy="130.99" r="41.41" xlink:href="#radial-gradient-4"/>
    <radialGradient id="radial-gradient-6" cx="6.39" cy="30.26" fx="6.39" fy="30.26" r="68.98" gradientTransform="matrix(1,0,0,1,0,0)" xlink:href="#radial-gradient-4"/>
    <radialGradient id="radial-gradient-7" cx="59.73" cy="2.37" fx="59.73" fy="2.37" r="59.97" gradientTransform="matrix(1,0,0,1,0,0)" xlink:href="#radial-gradient-4"/>
    <radialGradient id="radial-gradient-8" cx="56.08" cy="87.75" fx="56.08" fy="87.75" r="55.35" xlink:href="#radial-gradient"/>
    <radialGradient id="radial-gradient-9" cx="92.25" cy="35.13" fx="92.25" fy="35.13" r="51.53" xlink:href="#radial-gradient"/>
    <linearGradient id="linear-gradient" x1="121.64" y1="13.36" x2="121.64" y2="49.48" gradientUnits="userSpaceOnUse">
      <stop offset="0" stop-color="#393f5c"/>
      <stop offset=".1" stop-color="#354c6d"/>
      <stop offset=".39" stop-color="#2b6e9b"/>
      <stop offset=".64" stop-color="#2387bb"/>
      <stop offset=".86" stop-color="#1f96cf"/>
      <stop offset="1" stop-color="#1e9cd7"/>
    </linearGradient>
    <linearGradient id="linear-gradient-2" x1="154.13" x2="154.13" y2="50.21" xlink:href="#linear-gradient"/>
    <linearGradient id="linear-gradient-3" x1="188.14" x2="188.14" y2="50.04" xlink:href="#linear-gradient"/>
    <linearGradient id="linear-gradient-4" x1="220.24" y1="12.68" x2="220.24" xlink:href="#linear-gradient"/>
  </defs>
  <g id="Layer_1" data-name="Layer 1">
    <g>
      <path class="cls-27" d="M106.93,63.34v-3.6c0-.37,0-.66-.01-.88,0-.22-.02-.42-.04-.61-.03-.42-.11-.73-.24-.94-.13-.21-.39-.35-.79-.43-.1-.03-.23-.05-.41-.06-.18,0-.35-.01-.53-.01-.27,0-.41-.07-.41-.22s.18-.22.53-.22c.32,0,.65,0,.98.01.34,0,.66.02.97.02.31,0,.6.02.85.02.26,0,.47.01.65.01.5,0,1.06-.01,1.69-.04.63-.02,1.23-.04,1.79-.04.75,0,1.39.06,1.91.17.52.11.96.24,1.31.38.35.14.62.29.82.44.19.15.34.28.43.37.27.26.54.64.8,1.14.26.5.4,1.08.4,1.72,0,.85-.15,1.63-.44,2.34s-.71,1.32-1.24,1.84-1.15.91-1.87,1.2c-.72.29-1.5.43-2.35.43h-.26c-.1,0-.18,0-.24-.02-.06-.02-.13-.04-.19-.06-.06-.02-.1-.08-.1-.16,0-.1.05-.16.14-.2.1-.04.27-.06.53-.06.34,0,.69-.09,1.07-.28.38-.18.72-.45,1.04-.79.32-.34.58-.76.79-1.25.21-.49.31-1.04.31-1.64,0-.19-.01-.43-.04-.72s-.08-.6-.17-.92c-.09-.33-.23-.66-.42-1-.19-.34-.46-.66-.79-.96-.43-.4-.87-.66-1.32-.77-.45-.11-.81-.17-1.08-.17-.18,0-.35,0-.52.02-.17.02-.31.04-.42.07-.13.05-.19.2-.19.46v9.6c0,1.1,0,2.11.01,3.01,0,.9.04,1.61.11,2.12.03.34.1.62.22.86.11.24.35.38.72.43.18.03.38.06.61.07.23.02.44.02.61.02.26,0,.38.06.38.19,0,.16-.15.24-.46.24-.8,0-1.54-.01-2.22-.04-.68-.02-1.18-.04-1.5-.04-.14,0-.34,0-.58.01-.24,0-.5.02-.78.02-.28,0-.57.02-.86.02-.3,0-.56.01-.8.01-.32,0-.48-.08-.48-.24,0-.13.13-.19.38-.19.18,0,.34,0,.48-.02s.27-.04.38-.07c.24-.05.4-.19.49-.43.09-.24.16-.54.2-.89.06-.51.1-1.22.11-2.11,0-.9.01-1.9.01-3v-4.22Z"/>
      <path class="cls-4" d="M134.96,64.01c.1,0,.14-.06.14-.17v-4.1c0-.37,0-.66-.01-.88,0-.22-.02-.42-.04-.61-.03-.42-.11-.73-.24-.94-.13-.21-.39-.35-.79-.43-.1-.03-.23-.05-.41-.06s-.35-.01-.53-.01c-.27,0-.41-.07-.41-.22s.17-.22.5-.22.65,0,1,.01c.34,0,.67.02.98.02.31,0,.6.02.85.02.26,0,.46.01.62.01.14,0,.34,0,.59-.01.25,0,.51-.02.79-.02.28,0,.56-.02.85-.02.29,0,.55-.01.79-.01.34,0,.5.07.5.22s-.14.22-.43.22c-.18,0-.41.02-.7.07-.32.06-.54.2-.66.42-.12.22-.2.53-.23.95-.02.19-.03.4-.04.61s-.01.51-.01.88v7.82c0,1.1,0,2.11.01,3.01,0,.9.04,1.61.11,2.12.03.34.1.62.22.86.11.24.35.38.72.43.18.03.38.06.61.07.23.02.44.02.61.02.26,0,.38.06.38.19,0,.16-.16.24-.48.24-.78,0-1.52-.01-2.21-.04-.69-.02-1.2-.04-1.54-.04-.14,0-.34,0-.58.01-.24,0-.5.02-.78.02-.28,0-.56.02-.85.02-.29,0-.55.01-.79.01-.34,0-.5-.08-.5-.24,0-.13.13-.19.38-.19.18,0,.34,0,.48-.02s.27-.04.38-.07c.24-.05.4-.19.49-.43.09-.24.16-.54.2-.89.06-.51.1-1.22.11-2.11,0-.9.01-1.9.01-3v-2.11c0-.1-.05-.14-.14-.14h-9.17c-.1,0-.14.05-.14.14v2.11c0,1.1,0,2.11.01,3.01,0,.9.04,1.61.11,2.12.03.34.1.62.22.86.11.24.35.38.72.43.18.03.38.06.61.07s.44.02.61.02c.26,0,.38.06.38.19,0,.16-.16.24-.48.24-.78,0-1.52-.01-2.21-.04-.69-.02-1.2-.04-1.54-.04-.14,0-.34,0-.58.01-.24,0-.5.02-.78.02-.28,0-.57.02-.86.02-.3,0-.56.01-.8.01-.32,0-.48-.08-.48-.24,0-.13.13-.19.38-.19.18,0,.34,0,.48-.02s.27-.04.38-.07c.24-.05.4-.19.49-.43.09-.24.16-.54.2-.89.06-.51.1-1.22.11-2.11,0-.9.01-1.9.01-3v-7.82c0-.37,0-.66-.01-.88,0-.22-.02-.42-.04-.61-.03-.42-.11-.73-.24-.94-.13-.21-.39-.35-.79-.43-.1-.03-.23-.05-.41-.06-.18,0-.35-.01-.53-.01-.27,0-.41-.07-.41-.22s.17-.22.5-.22.65,0,1,.01c.34,0,.67.02.98.02.31,0,.6.02.85.02.26,0,.46.01.62.01.14,0,.34,0,.59-.01.25,0,.51-.02.79-.02.28,0,.56-.02.85-.02.29,0,.55-.01.79-.01.34,0,.5.07.5.22s-.14.22-.43.22c-.18,0-.41.02-.7.07-.32.06-.54.2-.66.42-.12.22-.2.53-.23.95-.02.19-.03.4-.04.61,0,.22-.01.51-.01.88v4.1c0,.11.05.17.14.17h9.17Z"/>
      <path class="cls-18" d="M148.67,68.31c0-.32-.02-.6-.05-.84-.03-.24-.07-.46-.12-.65-.05-.19-.1-.37-.17-.53-.06-.16-.14-.33-.22-.5-.03-.06-.14-.25-.31-.56-.18-.31-.4-.69-.67-1.13-.27-.44-.56-.92-.88-1.44-.31-.52-.62-1.02-.92-1.51-.3-.49-.58-.94-.84-1.34-.26-.41-.46-.72-.6-.92-.3-.45-.6-.82-.89-1.12-.29-.3-.54-.51-.77-.64-.16-.08-.33-.15-.52-.22-.18-.06-.35-.1-.49-.1-.1,0-.18-.02-.25-.05-.07-.03-.11-.09-.11-.17,0-.14.15-.22.46-.22.11,0,.3,0,.55.01.26,0,.53.02.83.02.3,0,.6.02.9.02.3,0,.55.01.74.01.26,0,.61-.01,1.07-.04.46-.02.96-.04,1.5-.04.24,0,.36.07.36.22,0,.08-.04.13-.13.16-.09.02-.22.06-.4.11-.11.03-.2.09-.25.17-.06.08-.08.17-.08.26s.03.21.08.35c.06.14.12.29.2.47.05.13.18.38.38.74.21.37.45.8.73,1.3.28.5.58,1.02.9,1.57.32.55.62,1.07.91,1.56s.54.92.74,1.28c.21.37.34.61.41.72.03-.1.14-.31.32-.64.18-.33.4-.72.65-1.16s.51-.93.79-1.44c.28-.51.55-1,.8-1.45.26-.46.48-.86.66-1.2.18-.34.31-.58.37-.71.22-.5.34-.91.34-1.25,0-.13-.03-.25-.1-.36-.06-.11-.2-.19-.41-.24-.11-.03-.21-.06-.3-.08-.09-.02-.13-.08-.13-.16,0-.14.14-.22.41-.22.4,0,.79.01,1.16.04.38.02.74.04,1.09.04.13,0,.31,0,.55-.01.24,0,.49-.02.76-.02.26,0,.51-.02.74-.02.23,0,.4-.01.52-.01.29,0,.43.06.43.19,0,.16-.15.24-.46.24-.13,0-.29.02-.49.07-.2.05-.39.12-.56.22-.26.13-.47.28-.64.44s-.39.41-.66.73c-.13.16-.32.44-.58.83-.26.39-.54.84-.86,1.34-.32.5-.65,1.04-.98,1.61-.34.57-.65,1.11-.95,1.62-.3.51-.56.97-.78,1.37-.22.4-.37.69-.43.86-.18.43-.28.84-.31,1.22-.03.38-.05.78-.05,1.18v1.97c0,.19,0,.51.01.96,0,.45.03.93.06,1.44.03.35.11.65.24.89.13.24.38.38.74.43.18.03.38.06.6.07.22.02.42.02.6.02.26,0,.38.06.38.19,0,.16-.17.24-.5.24-.75,0-1.47-.01-2.16-.04-.69-.02-1.19-.04-1.51-.04-.14,0-.34,0-.59.01s-.52.02-.8.02c-.29,0-.57.02-.85.02-.28,0-.53.01-.76.01-.35,0-.53-.08-.53-.24,0-.13.13-.19.38-.19.18,0,.33,0,.47-.02.14-.02.26-.04.37-.07.24-.05.42-.19.53-.43.11-.24.18-.54.22-.89.03-.51.05-.99.06-1.44s.01-.77.01-.96v-1.97Z"/>
      <path class="cls-26" d="M162.35,74.72c-.56-.1-1.1-.26-1.61-.48-.19-.08-.32-.17-.37-.26-.06-.1-.08-.28-.08-.55,0-.34,0-.67.01-1,0-.33.02-.64.04-.92.02-.29.03-.54.05-.76s.02-.37.02-.47c.02-.18.04-.32.08-.44s.11-.18.2-.18c.11,0,.18.04.2.13s.04.18.04.28c0,.16.02.35.06.58.04.22.09.44.16.65.27.9.72,1.52,1.36,1.88.63.36,1.32.54,2.08.54.54,0,1.02-.08,1.42-.25.4-.17.73-.38,1-.65.26-.26.46-.56.6-.88.14-.32.2-.64.2-.96,0-.29-.03-.58-.08-.88-.06-.3-.17-.6-.34-.9s-.41-.63-.72-.97c-.31-.34-.72-.71-1.21-1.09l-1.1-.86c-.66-.51-1.21-1.01-1.67-1.49-.46-.48-.82-.95-1.1-1.4s-.48-.92-.6-1.38c-.12-.46-.18-.94-.18-1.42,0-.66.13-1.26.4-1.82.26-.56.64-1.04,1.13-1.44.49-.4,1.07-.71,1.75-.94.68-.22,1.44-.34,2.27-.34.78,0,1.43.05,1.94.14.51.1.93.18,1.25.26.22.05.34.14.34.29,0,.16-.02.44-.05.85-.03.41-.05,1.08-.05,2.03,0,.27-.02.46-.06.56-.04.1-.11.16-.2.16-.16,0-.24-.14-.24-.43,0-.11-.04-.32-.12-.64-.08-.31-.25-.63-.5-.95-.1-.11-.21-.24-.35-.37-.14-.14-.31-.26-.52-.38s-.46-.22-.74-.3c-.29-.08-.62-.12-1.01-.12-.9,0-1.6.23-2.1.7-.5.46-.76,1.06-.76,1.78,0,.27.04.54.12.79.08.26.22.52.41.78.19.26.45.55.78.85.33.3.74.65,1.24,1.03l.67.5c.72.54,1.33,1.06,1.84,1.56.5.5.91.98,1.22,1.46.31.48.54.97.67,1.48s.2,1.04.2,1.62c0,.35-.04.71-.11,1.08s-.2.74-.37,1.1c-.18.37-.41.72-.7,1.06s-.65.65-1.08.94c-.61.38-1.24.64-1.88.78-.65.14-1.29.2-1.93.2-.7,0-1.34-.05-1.9-.14Z"/>
      <path class="cls-12" d="M176.03,63.34v-3.6c0-.37,0-.66-.01-.88,0-.22-.02-.42-.04-.61-.05-.78-.32-1.23-.82-1.34-.13-.03-.27-.06-.42-.07-.15-.02-.3-.02-.44-.02-.26,0-.38-.08-.38-.24,0-.13.19-.19.58-.19.22,0,.48,0,.77.01l.86.02c.29,0,.56.02.83.02.26,0,.48.01.66.01.14,0,.34,0,.58-.01.24,0,.5-.02.77-.02.27,0,.55-.02.83-.02.28,0,.53-.01.76-.01.34,0,.5.06.5.19,0,.16-.13.24-.38.24-.13,0-.24,0-.35.01-.1,0-.23.03-.37.06-.32.06-.54.2-.66.42-.12.22-.2.53-.23.95-.02.19-.03.4-.04.61,0,.22-.01.51-.01.88v7.82c0,1.17,0,2.21.01,3.12,0,.91.04,1.62.08,2.14.03.32.11.58.23.79.12.21.36.34.73.38.18.03.38.06.61.07.23.02.44.02.61.02.26,0,.38.06.38.19,0,.16-.15.24-.46.24-.8,0-1.54-.01-2.23-.04-.69-.02-1.19-.04-1.51-.04-.14,0-.34,0-.58.01-.24,0-.5.02-.78.02-.28,0-.57.02-.86.02-.3,0-.56.01-.8.01-.32,0-.48-.08-.48-.24,0-.13.13-.19.38-.19.18,0,.34,0,.48-.02s.27-.04.38-.07c.24-.05.41-.17.5-.37s.16-.48.19-.83c.06-.51.1-1.22.11-2.12,0-.9.01-1.94.01-3.11v-4.22Z"/>
      <path class="cls-14" d="M190.94,74.28c-1.37-.39-2.6-1.07-3.71-2.03-.59-.51-1.08-1.06-1.46-1.64s-.69-1.18-.91-1.8c-.22-.62-.38-1.23-.47-1.85-.09-.62-.13-1.21-.13-1.79,0-.4.04-.87.12-1.42s.22-1.11.42-1.69c.2-.58.48-1.18.85-1.78.37-.6.84-1.16,1.42-1.69.86-.8,1.9-1.42,3.1-1.87,1.2-.45,2.7-.67,4.49-.67.75,0,1.38.02,1.88.06.5.04,1.04.1,1.6.18.46.06.89.14,1.27.23.38.09.76.15,1.13.18.24.02.36.11.36.29,0,.1-.01.24-.04.42-.02.18-.05.48-.08.9-.02.19-.02.42-.02.67s0,.5-.01.74c0,.24-.01.47-.01.7,0,.21,0,.37-.02.48-.02.18-.04.31-.07.41-.03.1-.1.14-.22.14-.16,0-.24-.18-.24-.53-.02-.37-.1-.75-.25-1.14-.15-.39-.38-.75-.68-1.07-.4-.42-1.04-.77-1.91-1.06-.87-.29-1.86-.43-2.96-.43s-1.94.13-2.65.38-1.33.62-1.86,1.1c-.88.82-1.47,1.76-1.76,2.84-.3,1.08-.44,2.21-.44,3.37,0,1.42.24,2.67.73,3.74.49,1.07,1.1,1.96,1.85,2.68.74.71,1.56,1.25,2.45,1.6s1.73.53,2.53.53c1.07,0,1.95-.08,2.64-.25.69-.17,1.27-.53,1.75-1.09.21-.22.38-.49.53-.79.14-.3.24-.57.29-.79.03-.19.07-.32.11-.38.04-.06.11-.1.2-.1.08,0,.14.04.17.11s.05.16.05.25c0,.08-.02.25-.05.52-.03.26-.07.56-.12.89s-.1.66-.17.98-.13.6-.19.8c-.06.21-.13.36-.2.44-.07.09-.21.17-.42.25-.24.1-.53.18-.86.25-.34.07-.7.13-1.08.17-.38.04-.78.07-1.19.1-.41.02-.8.04-1.19.04-1.65,0-3.16-.2-4.52-.59Z"/>
      <path class="cls-22" d="M207.75,68.26c-.1,0-.17.06-.22.19l-1.3,3.43c-.13.3-.22.59-.28.85-.06.26-.08.47-.08.61,0,.22.07.4.2.54.14.14.39.2.76.2h.36c.14,0,.24.01.29.04.05.02.07.08.07.16,0,.16-.14.24-.41.24-.38,0-.81-.01-1.28-.04-.47-.02-.89-.04-1.26-.04-.06,0-.19,0-.37.01-.18,0-.41.02-.67.02-.26,0-.55.02-.86.02-.31,0-.62.01-.92.01s-.46-.08-.46-.24c0-.13.1-.19.29-.19.11,0,.24,0,.38-.01.14,0,.26-.02.36-.04.56-.08.98-.31,1.26-.68.28-.38.54-.87.78-1.48l6.02-15.07c.14-.35.26-.6.35-.74.09-.14.2-.22.32-.22.18,0,.38.26.6.77.1.22.28.66.54,1.3.26.64.57,1.41.92,2.3.35.9.74,1.86,1.15,2.9s.83,2.07,1.24,3.1c.41,1.02.8,1.99,1.16,2.89.37.9.68,1.66.94,2.27.22.54.44.98.64,1.31s.39.58.56.77c.18.18.34.31.49.38.15.07.29.12.42.16.18.03.35.06.53.07.18.02.34.02.48.02.21,0,.31.06.31.19,0,.1-.07.16-.22.19-.14.03-.44.05-.89.05h-1.87c-.82,0-1.7-.02-2.66-.05-.22-.02-.4-.03-.53-.05-.13-.02-.19-.06-.19-.14,0-.13.11-.2.34-.22.08-.03.15-.1.22-.19.06-.1.06-.22,0-.36l-1.92-5.09c-.05-.11-.13-.17-.24-.17h-5.35ZM212.65,67.06c.11,0,.15-.05.12-.14l-2.16-5.93s-.03-.1-.05-.14c-.02-.05-.04-.07-.07-.07s-.06.02-.08.07c-.02.05-.04.1-.06.14l-2.21,5.9c-.03.11,0,.17.1.17h4.42Z"/>
      <path class="cls-25" d="M226.59,67.57c0,1.55.02,2.74.06,3.58s.19,1.36.44,1.58c.1.1.22.18.36.24.14.06.32.12.54.16.22.04.49.07.82.1.33.02.72.04,1.19.04.64,0,1.19-.03,1.66-.1.46-.06.85-.26,1.15-.58.14-.16.28-.38.4-.67.12-.29.2-.54.23-.77.02-.11.04-.2.07-.26.03-.06.1-.1.19-.1.13,0,.19.14.19.41,0,.06,0,.21-.02.44-.02.23-.04.49-.08.78s-.08.57-.12.85c-.04.28-.08.51-.13.68-.03.13-.07.24-.12.32s-.12.16-.23.2c-.1.05-.25.08-.43.1-.18.02-.43.02-.73.02-.86,0-1.62,0-2.27-.02-.65-.02-1.24-.03-1.79-.05-.54-.03-1.04-.05-1.5-.06-.46,0-.93-.01-1.43-.01h-.58c-.24,0-.5,0-.79.02-.27,0-.56,0-.85.02s-.56.02-.8.02c-.32,0-.48-.08-.48-.24,0-.13.13-.19.38-.19.18,0,.34,0,.48-.02.14-.02.27-.04.38-.07.24-.05.4-.19.49-.43.09-.24.16-.54.2-.89.06-.51.1-1.22.11-2.11,0-.9.01-1.9.01-3v-7.82c0-.37,0-.66-.01-.88s-.02-.42-.04-.61c-.03-.42-.11-.73-.24-.94-.13-.21-.39-.35-.79-.43-.19-.05-.46-.07-.79-.07-.27,0-.41-.07-.41-.22s.18-.22.53-.22c.29,0,.59,0,.9.01.31,0,.62.02.92.02.3,0,.58.02.84.02.25,0,.46.01.62.01.14,0,.35,0,.62-.01.27,0,.56-.02.88-.02.31,0,.62-.02.94-.02.31,0,.59-.01.83-.01.34,0,.5.07.5.22s-.14.22-.43.22c-.13,0-.28,0-.46.01-.18,0-.34.03-.48.06-.32.06-.54.2-.66.42-.12.22-.2.53-.23.95-.02.19-.03.4-.04.61s-.01.51-.01.88v7.82Z"/>
      <path class="cls-28" d="M248.5,57.73l-3.58.1c-.7.03-1.22.09-1.56.17s-.59.26-.77.53c-.13.18-.22.34-.28.48-.06.14-.1.26-.13.36-.05.19-.14.29-.26.29-.14,0-.22-.13-.22-.38,0-.1.02-.28.07-.56s.1-.58.16-.89c.06-.31.11-.6.17-.85.06-.26.09-.41.11-.46.06-.3.16-.46.29-.46.1,0,.22.04.36.12.14.08.37.14.67.17.35.03.74.06,1.16.08.42.02.84.04,1.24.04h9.5c.38,0,.71-.01.98-.04.27-.02.5-.05.67-.08s.32-.06.42-.08c.1-.02.18-.04.23-.04.13,0,.19.17.19.5,0,.13,0,.32-.01.56,0,.25-.02.51-.02.78,0,.27-.02.54-.02.8s-.01.48-.01.64c-.03.26-.1.38-.22.38-.16,0-.25-.16-.26-.48l-.02-.26c-.02-.16-.07-.32-.17-.47-.1-.15-.25-.29-.47-.42-.22-.13-.5-.23-.86-.31-.36-.08-.8-.13-1.33-.14l-3.02-.07v9.84c0,1.1,0,2.11.01,3.01,0,.9.04,1.61.11,2.12.03.34.1.62.22.86.11.24.35.38.72.43.18.03.38.06.61.07.23.02.44.02.61.02.26,0,.38.06.38.19,0,.16-.15.24-.46.24-.8,0-1.54-.01-2.23-.04-.69-.02-1.2-.04-1.54-.04-.14,0-.34,0-.58.01s-.5.02-.78.02c-.28,0-.57.02-.86.02-.3,0-.56.01-.8.01-.32,0-.48-.08-.48-.24,0-.13.13-.19.38-.19.18,0,.34,0,.48-.02.14-.02.27-.04.38-.07.24-.05.41-.19.5-.43.1-.24.16-.54.19-.89.06-.51.1-1.22.11-2.11,0-.9.01-1.9.01-3v-9.84Z"/>
      <path class="cls-10" d="M274.66,64.01c.1,0,.14-.06.14-.17v-4.1c0-.37,0-.66-.01-.88s-.02-.42-.04-.61c-.03-.42-.11-.73-.24-.94s-.39-.35-.79-.43c-.1-.03-.23-.05-.41-.06-.18,0-.35-.01-.53-.01-.27,0-.41-.07-.41-.22s.17-.22.5-.22.65,0,1,.01c.34,0,.67.02.98.02.31,0,.6.02.85.02s.46.01.62.01c.14,0,.34,0,.59-.01s.51-.02.79-.02c.28,0,.56-.02.85-.02.29,0,.55-.01.79-.01.34,0,.5.07.5.22s-.14.22-.43.22c-.18,0-.41.02-.7.07-.32.06-.54.2-.66.42-.12.22-.2.53-.23.95-.02.19-.03.4-.04.61,0,.22-.01.51-.01.88v7.82c0,1.1,0,2.11.01,3.01,0,.9.04,1.61.11,2.12.03.34.1.62.22.86.11.24.35.38.72.43.18.03.38.06.61.07.23.02.44.02.61.02.26,0,.38.06.38.19,0,.16-.16.24-.48.24-.78,0-1.52-.01-2.21-.04-.69-.02-1.2-.04-1.54-.04-.14,0-.34,0-.58.01s-.5.02-.78.02c-.28,0-.56.02-.85.02-.29,0-.55.01-.79.01-.34,0-.5-.08-.5-.24,0-.13.13-.19.38-.19.18,0,.34,0,.48-.02.14-.02.27-.04.38-.07.24-.05.4-.19.49-.43.09-.24.16-.54.2-.89.06-.51.1-1.22.11-2.11,0-.9.01-1.9.01-3v-2.11c0-.1-.05-.14-.14-.14h-9.17c-.1,0-.14.05-.14.14v2.11c0,1.1,0,2.11.01,3.01,0,.9.04,1.61.11,2.12.03.34.1.62.22.86.11.24.35.38.72.43.18.03.38.06.61.07.23.02.44.02.61.02.26,0,.38.06.38.19,0,.16-.16.24-.48.24-.78,0-1.52-.01-2.21-.04-.69-.02-1.2-.04-1.54-.04-.14,0-.34,0-.58.01s-.5.02-.78.02c-.28,0-.57.02-.86.02-.3,0-.56.01-.8.01-.32,0-.48-.08-.48-.24,0-.13.13-.19.38-.19.18,0,.34,0,.48-.02.14-.02.27-.04.38-.07.24-.05.4-.19.49-.43.09-.24.16-.54.2-.89.06-.51.1-1.22.11-2.11,0-.9.01-1.9.01-3v-7.82c0-.37,0-.66-.01-.88s-.02-.42-.04-.61c-.03-.42-.11-.73-.24-.94-.13-.21-.39-.35-.79-.43-.1-.03-.23-.05-.41-.06-.18,0-.35-.01-.53-.01-.27,0-.41-.07-.41-.22s.17-.22.5-.22.65,0,1,.01c.34,0,.67.02.98.02.31,0,.6.02.85.02s.46.01.62.01c.14,0,.34,0,.59-.01s.51-.02.79-.02c.28,0,.56-.02.85-.02.29,0,.55-.01.79-.01.34,0,.5.07.5.22s-.14.22-.43.22c-.18,0-.41.02-.7.07-.32.06-.54.2-.66.42-.12.22-.2.53-.23.95-.02.19-.03.4-.04.61,0,.22-.01.51-.01.88v4.1c0,.11.05.17.14.17h9.17Z"/>
      <path class="cls-19" d="M286.68,63.34v-3.6c0-.37,0-.66-.01-.88s-.02-.42-.04-.61c-.03-.42-.11-.73-.24-.94-.13-.21-.39-.35-.79-.43-.1-.03-.23-.05-.41-.06-.18,0-.35-.01-.53-.01-.27,0-.41-.07-.41-.22s.18-.22.53-.22c.32,0,.65,0,.98.01.34,0,.66.01.96.01.32.02.61.03.86.04s.47.01.65.01h4.42c.4,0,.74,0,1.03-.01s.47-.01.55-.01c.22-.03.43-.06.61-.07.18-.02.32-.04.42-.07.06-.02.13-.04.19-.06.06-.02.13-.04.19-.04.1,0,.14.07.14.22,0,.08-.02.22-.07.42-.05.2-.09.58-.12,1.14,0,.06,0,.17-.01.31,0,.14-.02.3-.04.47-.02.17-.03.33-.04.48,0,.15-.02.26-.04.32-.02.06-.04.12-.07.18-.03.06-.09.08-.17.08-.14,0-.22-.11-.22-.34,0-.08,0-.21-.02-.38-.02-.18-.06-.34-.12-.48-.08-.21-.22-.38-.42-.53-.2-.14-.6-.26-1.19-.34-.1-.02-.31-.03-.64-.04-.33,0-.68-.02-1.04-.02-.37,0-.72-.02-1.06-.02-.34,0-.56-.01-.67-.01s-.17.08-.17.24v6.07c0,.18.06.26.17.26h1.9c.42,0,.81,0,1.18-.01.37,0,.62-.02.77-.04.29-.03.52-.07.71-.11s.33-.12.44-.25c.18-.21.3-.31.38-.31.11,0,.17.06.17.19,0,.08-.02.24-.06.48-.04.24-.08.67-.13,1.27,0,.13,0,.27-.02.43-.02.16-.03.32-.04.48s-.02.3-.02.43c0,.13-.01.22-.01.26,0,.1,0,.2-.02.3-.02.1-.08.16-.19.16-.14,0-.22-.07-.22-.22-.02-.13-.03-.26-.04-.41,0-.14-.03-.3-.06-.46-.06-.24-.19-.44-.38-.61-.19-.17-.51-.28-.96-.32-.11-.02-.33-.03-.65-.04-.32,0-.66-.02-1.02-.02-.36,0-.71-.01-1.04-.01h-.7c-.1,0-.14.08-.14.24v5.62c.02.42.06.76.13,1.02.07.26.21.47.41.61.2.14.49.24.86.3.38.06.87.08,1.48.08.32,0,.7-.01,1.13-.04.43-.02.81-.11,1.13-.25.32-.14.56-.35.72-.62.16-.27.28-.66.36-1.15.05-.24.14-.36.26-.36.1,0,.15.04.17.12.02.08.02.18.02.31,0,.14-.01.34-.04.59-.02.25-.05.5-.08.77s-.06.52-.1.77-.06.43-.1.54c-.05.16-.1.28-.14.36s-.12.14-.22.18c-.1.04-.22.06-.37.07s-.34.01-.56.01c-.91,0-1.7,0-2.38-.02-.67-.02-1.26-.03-1.78-.05-.51-.03-.96-.05-1.36-.06-.39,0-.77-.01-1.14-.01h-.58c-.24,0-.5,0-.79.02-.27,0-.56,0-.85.02-.3.02-.56.02-.8.02-.32,0-.48-.08-.48-.24,0-.13.13-.19.38-.19.18,0,.34,0,.48-.02.14-.02.27-.04.38-.07.24-.05.4-.19.49-.43.09-.24.16-.54.2-.89.06-.51.1-1.22.11-2.11,0-.9.01-1.9.01-3v-4.22Z"/>
      <path class="cls-23" d="M301.85,63.34v-3.6c0-.37,0-.66-.01-.88s-.02-.42-.04-.61c-.03-.42-.11-.73-.24-.94-.13-.21-.39-.35-.79-.43-.1-.03-.23-.05-.41-.06-.18,0-.35-.01-.53-.01-.27,0-.41-.07-.41-.22s.18-.22.53-.22c.32,0,.65,0,.98.01.34,0,.65.02.95.02.3,0,.56.02.8.02.24,0,.42.01.55.01.21,0,.46,0,.77-.01s.62-.02.95-.02c.33,0,.64-.02.94-.02.29,0,.54-.01.73-.01.77,0,1.53.06,2.29.18.76.12,1.47.4,2.12.85.16.11.34.27.53.48.19.21.37.45.54.73.17.28.3.6.41.95.1.35.16.73.16,1.13,0,.45-.05.89-.16,1.32-.1.43-.28.86-.52,1.3-.24.43-.56.88-.97,1.33s-.92.93-1.52,1.43c1.07,1.36,2.03,2.56,2.87,3.61s1.62,1.95,2.34,2.7c.34.35.65.63.94.84s.55.37.78.48c.23.11.43.19.59.23.16.04.29.07.38.08.26.05.48.07.67.07s.29.06.29.19c0,.16-.15.24-.46.24h-2.28c-.67,0-1.19-.03-1.56-.1-.37-.06-.71-.18-1.01-.36-.51-.27-1.02-.7-1.52-1.27s-1.09-1.33-1.76-2.26c-.24-.34-.48-.68-.73-1.03-.25-.35-.48-.68-.7-.98s-.41-.57-.58-.8c-.17-.23-.29-.4-.37-.49-.1-.11-.24-.17-.43-.17l-2.09-.05c-.13,0-.19.06-.19.19v.34c0,1.12,0,2.13.01,3.02,0,.9.04,1.6.11,2.11.03.35.1.65.22.89.11.24.35.38.72.43.18.03.38.06.61.07.23.02.42.02.56.02.19,0,.29.06.29.19,0,.16-.16.24-.48.24-.35,0-.72,0-1.09-.01-.38,0-.73-.02-1.06-.02-.33,0-.62-.02-.86-.02s-.42-.01-.52-.01c-.11,0-.28,0-.52.01-.23,0-.48.02-.76.02-.27,0-.56.02-.85.02-.3,0-.56.01-.8.01-.32,0-.48-.08-.48-.24,0-.13.13-.19.38-.19.18,0,.34,0,.48-.02.14-.02.27-.04.38-.07.24-.05.4-.19.49-.43.09-.24.16-.54.2-.89.06-.51.1-1.22.11-2.11,0-.9.01-1.9.01-3v-4.22ZM304.68,65.24c0,.22.07.37.22.43.26.08.55.14.88.18.33.04.64.06.95.06.24,0,.44,0,.61-.02.17-.02.32-.04.44-.07.13-.03.24-.07.34-.12.1-.05.2-.11.31-.19.37-.27.7-.69.98-1.26.29-.57.43-1.35.43-2.34,0-.85-.12-1.56-.37-2.12s-.56-1.02-.94-1.36-.78-.57-1.2-.71c-.42-.14-.81-.2-1.16-.2-.64,0-1.06.03-1.27.1-.14.05-.22.16-.22.34v7.3Z"/>
      <path class="cls-3" d="M320.93,68.26c-.1,0-.17.06-.22.19l-1.3,3.43c-.13.3-.22.59-.28.85-.06.26-.08.47-.08.61,0,.22.07.4.2.54.14.14.39.2.76.2h.36c.14,0,.24.01.29.04.05.02.07.08.07.16,0,.16-.14.24-.41.24-.38,0-.81-.01-1.28-.04-.47-.02-.89-.04-1.26-.04-.06,0-.19,0-.37.01s-.41.02-.67.02c-.26,0-.55.02-.86.02-.31,0-.62.01-.92.01s-.46-.08-.46-.24c0-.13.1-.19.29-.19.11,0,.24,0,.38-.01.14,0,.26-.02.36-.04.56-.08.98-.31,1.26-.68s.54-.87.78-1.48l6.02-15.07c.14-.35.26-.6.35-.74.09-.14.2-.22.32-.22.18,0,.38.26.6.77.1.22.28.66.54,1.3.26.64.57,1.41.92,2.3.35.9.74,1.86,1.15,2.9s.83,2.07,1.24,3.1c.41,1.02.8,1.99,1.16,2.89s.68,1.66.94,2.27c.22.54.44.98.64,1.31s.39.58.56.77c.18.18.34.31.49.38.15.07.29.12.42.16.18.03.35.06.53.07s.34.02.48.02c.21,0,.31.06.31.19,0,.1-.07.16-.22.19-.14.03-.44.05-.89.05h-1.87c-.82,0-1.7-.02-2.66-.05-.22-.02-.4-.03-.53-.05-.13-.02-.19-.06-.19-.14,0-.13.11-.2.34-.22.08-.03.15-.1.22-.19.06-.1.06-.22,0-.36l-1.92-5.09c-.05-.11-.13-.17-.24-.17h-5.35ZM325.82,67.06c.11,0,.15-.05.12-.14l-2.16-5.93s-.03-.1-.05-.14c-.02-.05-.04-.07-.07-.07s-.06.02-.08.07c-.02.05-.04.1-.06.14l-2.21,5.9c-.03.11,0,.17.1.17h4.42Z"/>
      <path class="cls-13" d="M336.77,63.34v-3.6c0-.37,0-.66-.01-.88s-.02-.42-.04-.61c-.03-.42-.11-.73-.24-.94-.13-.21-.39-.35-.79-.43-.1-.03-.23-.05-.41-.06-.18,0-.35-.01-.53-.01-.27,0-.41-.07-.41-.22s.18-.22.53-.22c.32,0,.65,0,.98.01.34,0,.66.02.97.02.31,0,.6.02.85.02s.47.01.65.01c.5,0,1.06-.01,1.69-.04.63-.02,1.23-.04,1.79-.04.75,0,1.39.06,1.91.17.52.11.96.24,1.31.38.35.14.62.29.82.44.19.15.34.28.43.37.27.26.54.64.8,1.14.26.5.4,1.08.4,1.72,0,.85-.15,1.63-.44,2.34-.3.71-.71,1.32-1.24,1.84s-1.15.91-1.87,1.2-1.5.43-2.35.43h-.26c-.1,0-.18,0-.24-.02-.06-.02-.13-.04-.19-.06-.06-.02-.1-.08-.1-.16,0-.1.05-.16.14-.2.1-.04.27-.06.53-.06.34,0,.69-.09,1.07-.28.38-.18.72-.45,1.04-.79.32-.34.58-.76.79-1.25.21-.49.31-1.04.31-1.64,0-.19-.01-.43-.04-.72-.02-.29-.08-.6-.17-.92-.09-.33-.23-.66-.42-1-.19-.34-.46-.66-.79-.96-.43-.4-.87-.66-1.32-.77-.45-.11-.81-.17-1.08-.17-.18,0-.35,0-.52.02-.17.02-.31.04-.42.07-.13.05-.19.2-.19.46v9.6c0,1.1,0,2.11.01,3.01,0,.9.04,1.61.11,2.12.03.34.1.62.22.86.11.24.35.38.72.43.18.03.38.06.61.07.23.02.44.02.61.02.26,0,.38.06.38.19,0,.16-.15.24-.46.24-.8,0-1.54-.01-2.22-.04-.68-.02-1.18-.04-1.5-.04-.14,0-.34,0-.58.01s-.5.02-.78.02c-.28,0-.57.02-.86.02-.3,0-.56.01-.8.01-.32,0-.48-.08-.48-.24,0-.13.13-.19.38-.19.18,0,.34,0,.48-.02.14-.02.27-.04.38-.07.24-.05.4-.19.49-.43.09-.24.16-.54.2-.89.06-.51.1-1.22.11-2.11,0-.9.01-1.9.01-3v-4.22Z"/>
      <path class="cls-5" d="M355.17,68.31c0-.32-.02-.6-.05-.84-.03-.24-.07-.46-.12-.65-.05-.19-.1-.37-.17-.53-.06-.16-.14-.33-.22-.5-.03-.06-.14-.25-.31-.56-.18-.31-.4-.69-.67-1.13-.27-.44-.56-.92-.88-1.44-.31-.52-.62-1.02-.92-1.51-.3-.49-.58-.94-.84-1.34-.26-.41-.46-.72-.6-.92-.3-.45-.6-.82-.89-1.12-.29-.3-.54-.51-.77-.64-.16-.08-.33-.15-.52-.22-.18-.06-.35-.1-.49-.1-.1,0-.18-.02-.25-.05-.07-.03-.11-.09-.11-.17,0-.14.15-.22.46-.22.11,0,.3,0,.55.01.26,0,.53.02.83.02.3,0,.6.02.9.02s.55.01.74.01c.26,0,.61-.01,1.07-.04.46-.02.96-.04,1.5-.04.24,0,.36.07.36.22,0,.08-.04.13-.13.16-.09.02-.22.06-.4.11-.11.03-.2.09-.25.17-.06.08-.08.17-.08.26s.03.21.08.35c.06.14.12.29.2.47.05.13.18.38.38.74.21.37.45.8.73,1.3.28.5.58,1.02.9,1.57.32.55.62,1.07.91,1.56s.54.92.74,1.28.34.61.41.72c.03-.1.14-.31.32-.64.18-.33.4-.72.65-1.16s.51-.93.79-1.44c.28-.51.55-1,.8-1.45s.48-.86.66-1.2c.18-.34.31-.58.37-.71.22-.5.34-.91.34-1.25,0-.13-.03-.25-.1-.36-.06-.11-.2-.19-.41-.24-.11-.03-.21-.06-.3-.08-.09-.02-.13-.08-.13-.16,0-.14.14-.22.41-.22.4,0,.79.01,1.16.04.38.02.74.04,1.09.04.13,0,.31,0,.55-.01s.49-.02.76-.02c.26,0,.51-.02.74-.02.23,0,.4-.01.52-.01.29,0,.43.06.43.19,0,.16-.15.24-.46.24-.13,0-.29.02-.49.07-.2.05-.39.12-.56.22-.26.13-.47.28-.64.44s-.39.41-.66.73c-.13.16-.32.44-.58.83-.26.39-.54.84-.86,1.34-.32.5-.65,1.04-.98,1.61-.34.57-.65,1.11-.95,1.62-.3.51-.56.97-.78,1.37-.22.4-.37.69-.43.86-.18.43-.28.84-.31,1.22-.03.38-.05.78-.05,1.18v1.97c0,.19,0,.51.01.96,0,.45.03.93.06,1.44.03.35.11.65.24.89.13.24.38.38.74.43.18.03.38.06.6.07.22.02.42.02.6.02.26,0,.38.06.38.19,0,.16-.17.24-.5.24-.75,0-1.47-.01-2.16-.04-.69-.02-1.19-.04-1.51-.04-.14,0-.34,0-.59.01-.25,0-.52.02-.8.02-.29,0-.57.02-.85.02-.28,0-.53.01-.76.01-.35,0-.53-.08-.53-.24,0-.13.13-.19.38-.19.18,0,.33,0,.47-.02s.26-.04.37-.07c.24-.05.42-.19.53-.43.11-.24.18-.54.22-.89.03-.51.05-.99.06-1.44,0-.45.01-.77.01-.96v-1.97Z"/>
    </g>
    <g>
      <g>
        <g>
          <path class="cls-8" d="M37.86,17.97c0,4.09,3.32,7.4,7.41,7.4s7.4-3.32,7.4-7.4-3.31-7.4-7.4-7.4-7.41,3.31-7.41,7.4Z"/>
          <path class="cls-16" d="M86.74,16.92c-8.99,2.88-41.65,21.54-53.69,21.88-6.11-.16-14.66-4.73-11.67-17.5.02-.49.07-.78.07-.78-16.16,58.97,60.58.27,66.78-2.69,6.19-2.96,8.08,1.35,8.08,1.35,0,0-.57-5.15-9.56-2.26Z"/>
          <path class="cls-9" d="M58.6,25.65c-36.33,16.47-37.43-.41-37.23-4.34-2.98,12.77,5.57,17.34,11.67,17.5,12.05-.34,44.7-19,53.69-21.88,8.99-2.88,9.56,2.26,9.56,2.26,0,0,3.7-12.3-37.7,6.46Z"/>
        </g>
        <g>
          <path class="cls-17" d="M9.73,68.35c8.99-2.89,41.65-21.55,53.69-21.89,6.11.16,14.66,4.73,11.68,17.5-.02.49-.07.78-.07.78,16.16-58.97-60.59-.27-66.78,2.69-6.19,2.96-8.08-1.35-8.08-1.35,0,0,.57,5.15,9.56,2.26Z"/>
          <path class="cls-7" d="M37.87,59.63c36.33-16.47,37.43.41,37.23,4.34,2.98-12.77-5.57-17.34-11.68-17.5-12.04.34-44.7,19-53.69,21.89C.74,71.24.17,66.09.17,66.09c0,0-3.7,12.3,37.7-6.46Z"/>
        </g>
      </g>
      <path class="cls-20" d="M48.24,1.81c12.15,0,23.05,5.31,30.53,13.73.64-.2,1.27-.38,1.88-.56C72.82,5.82,61.2,0,48.24,0,24.72,0,5.6,19.13,5.6,42.64c0,7.5,1.96,14.56,5.38,20.69.47-.31.98-.65,1.5-1-3.22-5.84-5.06-12.55-5.06-19.69C7.41,20.09,25.69,1.81,48.24,1.81Z"/>
      <path class="cls-21" d="M13.8,61.45c-3.06-5.59-4.81-12-4.81-18.81C8.99,21,26.6,3.39,48.24,3.39c11.4,0,21.67,4.89,28.85,12.68.57-.19,1.13-.36,1.68-.53C71.28,7.12,60.38,1.81,48.24,1.81,25.69,1.81,7.41,20.09,7.41,42.64c0,7.14,1.84,13.85,5.06,19.69.2-.13.4-.26.6-.4.24-.16.48-.32.73-.49Z"/>
      <path class="cls-15" d="M85.5,21.95c-.47.31-.98.65-1.5,1,3.22,5.84,5.06,12.55,5.06,19.7,0,22.55-18.28,40.83-40.83,40.83-12.15,0-23.05-5.31-30.53-13.73-.64.2-1.27.38-1.89.56,7.83,9.16,19.45,14.98,32.41,14.98,23.51,0,42.64-19.13,42.64-42.64,0-7.5-1.96-14.56-5.38-20.69Z"/>
      <path class="cls-2" d="M48.24,83.47c22.55,0,40.83-18.28,40.83-40.83,0-7.14-1.84-13.85-5.06-19.7-.2.13-.4.26-.6.4-.24.16-.49.32-.73.49,3.06,5.59,4.81,12,4.81,18.81,0,21.64-17.6,39.24-39.24,39.24-11.4,0-21.68-4.89-28.85-12.68-.57.19-1.13.36-1.68.53,7.48,8.42,18.38,13.73,30.53,13.73Z"/>
    </g>
  </g>
  <g id="Layer_4" data-name="Layer 4">
    <g>
      <path class="cls-24" d="M129.09,49.48c-3.77-4.67-8.1-10.75-12.26-16.6-.84-1.12-1.24-1.41-1.97-1.35v11.42c0,5.12.39,5.51,4.16,5.91v.62h-12.66v-.62c3.54-.39,4.05-.79,4.05-5.91v-23.01c0-5.18-.39-5.51-4.05-5.96v-.62h12.49v.62c-3.66.45-3.99.79-3.99,5.96v10.75c.84-.34,1.91-1.24,3.04-2.48,2.76-3.04,6.47-7.2,9.34-11.03,1.58-2.08,1.29-2.64-1.18-2.98l-1.29-.17v-.67h11.25v.62c-3.32.39-4.5.84-7.99,4.67-1.91,2.08-5.34,5.85-8.89,9.85,4.16,5.85,9.11,12.32,11.81,15.87,2.81,3.43,3.32,4.11,5.96,4.5v.62h-7.82Z"/>
      <path class="cls-1" d="M170.22,13.98c-3.09.39-3.88,1.07-4.11,3.49-.11,1.63-.28,4.56-.28,9.17v6.41c0,6.08-.9,10.52-3.66,13.67-2.25,2.48-5.46,3.49-8.5,3.49-2.64,0-5.57-.68-7.65-2.42-2.93-2.48-3.99-6.36-3.99-12.32v-15.53c0-5.23-.39-5.51-3.99-5.96v-.62h12.49v.62c-3.6.39-3.99.73-3.99,5.96v13.95c0,6.81,1.35,14.01,8.78,14.01,8.16,0,9.06-8.5,9.06-16.15v-5.12c0-4.56-.11-7.54-.28-9.28-.22-2.31-.9-3.04-4.73-3.38v-.62h10.86v.62Z"/>
      <path class="cls-11" d="M204.65,13.98c-3.04.28-3.83.96-3.99,3.43-.11,1.63-.34,4.61-.34,9.56v23.07h-1.07l-20.7-29.82h-.11v15.42c0,4.95.23,7.93.34,9.62.17,2.59,1.24,3.32,5.01,3.6v.62h-11.48v-.62c3.32-.28,4.22-.96,4.44-3.71.11-1.58.28-4.56.28-9.51v-13.73c0-3.38-.06-4.16-.96-5.46-1.01-1.52-1.69-2.19-4.44-2.48v-.62h7.43l19.75,27.62h.11v-14.01c0-4.95-.17-8.04-.28-9.51-.23-2.53-1.18-3.26-4.78-3.49v-.62h10.8v.62Z"/>
      <path class="cls-6" d="M223.67,49.48v-.62c3.15-.39,3.71-.96,3.04-3.04-.68-2.31-1.8-6.13-3.15-10.3h-9.73c-.79,2.36-1.86,5.96-2.64,8.89-.96,3.49-.45,3.99,3.38,4.44v.62h-10.24l.06-.62c2.98-.39,3.66-.84,5.29-5.51l10.41-30.32.9-.34c3.15,9.96,6.24,20.03,9.9,30.72,1.58,4.67,2.08,5.06,5.29,5.46v.62h-12.49ZM218.89,20.11h-.17c-1.52,4.61-3.04,9.4-4.44,13.95h8.83l-4.22-13.95Z"/>
    </g>
  </g>
</svg>