<?xml version="1.0" encoding="UTF-8"?>
<svg xmlns="http://www.w3.org/2000/svg" viewBox="0 0 625 240">
  <!-- <rect width="100%" height="100%" fill="black" /> -->
  <g id="text-layer"
    transform="translate(220 14)"
  >
    <defs>
      <style type="text/css"><![CDATA[
        @font-face {
          font-family: 'Cinzel';
          font-style: normal;
          font-weight: 500;
          font-display: swap;
          src: url('https://fonts.gstatic.com/s/cinzel/v26/8vIU7ww63mVu7gtR-kwKxNvkNOjw-uTnTYo.ttf') format('truetype');
        }
        @font-face {
          font-family: 'Cinzel';
          font-style: normal;
          font-weight: 600;
          font-display: swap;
          src: url('https://fonts.gstatic.com/s/cinzel/v26/8vIU7ww63mVu7gtR-kwKxNvkNOjw-gjgTYo.ttf') format('truetype');
        }
        @font-face {
          font-family: 'Cinzel';
          font-style: normal;
          font-weight: 700;
          font-display: swap;
          src: url('https://fonts.gstatic.com/s/cinzel/v26/8vIU7ww63mVu7gtR-kwKxNvkNOjw-jHgTYo.ttf') format('truetype');
        }
        text {
          font-family: 'Cinzel', serif;
          font-optical-sizing: auto;
          font-style: normal;
        }
      ]]></style>
    </defs>
    <!-- Black background -->
    <!-- <rect width="405" height="200" fill="black" /> -->
    <text fill="#578B25" font-size="60" x="8.2" y="50" font-weight="500">Kuna</text>
    <text fill="#2A6B99" font-size="85" x="0" y="120" font-weight="600">Physical</text>
    <text fill="#2A6B99" font-size="85" x="8.2" y="190" font-weight="600">Therapy</text>

  </g>
  <g id="icon-layer" xmlns:xlink="http://www.w3.org/1999/xlink" xmlns="http://www.w3.org/2000/svg" transform="translate(5 5) scale(2.2)">
    <defs>
      <style>
        .cls-1 {
          fill: url(#radial-gradient-9);
        }

        .cls-2 {
          fill: url(#radial-gradient-5);
        }

        .cls-3 {
          fill: url(#radial-gradient);
        }

        .cls-4 {
          fill: url(#radial-gradient-3);
        }

        .cls-5 {
          fill: url(#radial-gradient-8);
        }

        .cls-6 {
          fill: url(#radial-gradient-2);
        }

        .cls-7 {
          fill: url(#radial-gradient-4);
        }

        .cls-8 {
          fill: url(#radial-gradient-6);
        }

        .cls-9 {
          fill: url(#radial-gradient-7);
        }
      </style>
      <radialGradient gradientUnits="userSpaceOnUse" r="12.32" fy="14.8" fx="41.98" cy="14.8" cx="41.98" id="radial-gradient">
        <stop stop-color="#91c83e" offset="0"/>
        <stop stop-color="#699f39" offset=".36"/>
        <stop stop-color="#417533" offset=".78"/>
        <stop stop-color="#326632" offset="1"/>
      </radialGradient>
      <radialGradient xlink:href="#radial-gradient" r="57.26" fy="23.62" fx="67.99" cy="23.62" cx="67.99" id="radial-gradient-2"/>
      <radialGradient xlink:href="#radial-gradient" r="41.41" fy="36.52" fx="37" cy="36.52" cx="37" id="radial-gradient-3"/>
      <radialGradient gradientUnits="userSpaceOnUse" gradientTransform="translate(412.17 179.74) rotate(-180)" r="57.26" fy="118.09" fx="383.69" cy="118.09" cx="383.69" id="radial-gradient-4">
        <stop stop-color="#1f9dd9" offset="0"/>
        <stop stop-color="#272971" offset="1"/>
      </radialGradient>
      <radialGradient xlink:href="#radial-gradient-4" r="41.41" fy="130.99" fx="352.71" cy="130.99" cx="352.71" id="radial-gradient-5"/>
      <radialGradient xlink:href="#radial-gradient-4" gradientTransform="matrix(1,0,0,1,0,0)" r="68.98" fy="30.26" fx="6.39" cy="30.26" cx="6.39" id="radial-gradient-6"/>
      <radialGradient xlink:href="#radial-gradient-4" gradientTransform="matrix(1,0,0,1,0,0)" r="59.97" fy="2.37" fx="59.73" cy="2.37" cx="59.73" id="radial-gradient-7"/>
      <radialGradient xlink:href="#radial-gradient" r="55.35" fy="87.75" fx="56.08" cy="87.75" cx="56.08" id="radial-gradient-8"/>
      <radialGradient xlink:href="#radial-gradient" r="51.53" fy="35.13" fx="92.25" cy="35.13" cx="92.25" id="radial-gradient-9"/>
    </defs>
    <g>
      <g>
        <path d="M37.86,17.97c0,4.09,3.32,7.4,7.41,7.4s7.4-3.32,7.4-7.4-3.31-7.4-7.4-7.4-7.41,3.31-7.41,7.4Z" class="cls-3"/>
        <path d="M86.74,16.92c-8.99,2.88-41.65,21.54-53.69,21.88-6.11-.16-14.66-4.73-11.67-17.5.02-.49.07-.78.07-.78-16.16,58.97,60.58.27,66.78-2.69,6.19-2.96,8.08,1.35,8.08,1.35,0,0-.57-5.15-9.56-2.26Z" class="cls-6"/>
        <path d="M58.6,25.65c-36.33,16.47-37.43-.41-37.23-4.34-2.98,12.77,5.57,17.34,11.67,17.5,12.05-.34,44.7-19,53.69-21.88,8.99-2.88,9.56,2.26,9.56,2.26,0,0,3.7-12.3-37.7,6.46Z" class="cls-4"/>
      </g>
      <g>
        <path d="M9.73,68.35c8.99-2.89,41.65-21.55,53.69-21.89,6.11.16,14.66,4.73,11.68,17.5-.02.49-.07.78-.07.78,16.16-58.97-60.59-.27-66.78,2.69-6.19,2.96-8.08-1.35-8.08-1.35,0,0,.57,5.15,9.56,2.26Z" class="cls-7"/>
        <path d="M37.87,59.63c36.33-16.47,37.43.41,37.23,4.34,2.98-12.77-5.57-17.34-11.68-17.5-12.04.34-44.7,19-53.69,21.89C.74,71.24.17,66.09.17,66.09c0,0-3.7,12.3,37.7-6.46Z" class="cls-2"/>
      </g>
    </g>
    <path d="M48.24,1.81c12.15,0,23.05,5.31,30.53,13.73.64-.2,1.27-.38,1.88-.56C72.82,5.82,61.2,0,48.24,0,24.72,0,5.6,19.13,5.6,42.64c0,7.5,1.96,14.56,5.38,20.69.47-.31.98-.65,1.5-1-3.22-5.84-5.06-12.55-5.06-19.69C7.41,20.09,25.69,1.81,48.24,1.81Z" class="cls-8"/>
    <path d="M13.8,61.45c-3.06-5.59-4.81-12-4.81-18.81C8.99,21,26.6,3.39,48.24,3.39c11.4,0,21.67,4.89,28.85,12.68.57-.19,1.13-.36,1.68-.53C71.28,7.12,60.38,1.81,48.24,1.81,25.69,1.81,7.41,20.09,7.41,42.64c0,7.14,1.84,13.85,5.06,19.69.2-.13.4-.26.6-.4.24-.16.48-.32.73-.49Z" class="cls-9"/>
    <path d="M85.5,21.95c-.47.31-.98.65-1.5,1,3.22,5.84,5.06,12.55,5.06,19.7,0,22.55-18.28,40.83-40.83,40.83-12.15,0-23.05-5.31-30.53-13.73-.64.2-1.27.38-1.89.56,7.83,9.16,19.45,14.98,32.41,14.98,23.51,0,42.64-19.13,42.64-42.64,0-7.5-1.96-14.56-5.38-20.69Z" class="cls-5"/>
    <path d="M48.24,83.47c22.55,0,40.83-18.28,40.83-40.83,0-7.14-1.84-13.85-5.06-19.7-.2.13-.4.26-.6.4-.24.16-.49.32-.73.49,3.06,5.59,4.81,12,4.81,18.81,0,21.64-17.6,39.24-39.24,39.24-11.4,0-21.68-4.89-28.85-12.68-.57.19-1.13.36-1.68.53,7.48,8.42,18.38,13.73,30.53,13.73Z" class="cls-1"/>
  </g>
  <g id="underline-layer">
    <defs>
      <linearGradient id="swoosh-linear-gradient" gradientUnits="userSpaceOnUse" x1="140" y1="245" x2="450" y2="230">
        <stop offset="0%"   stop-color="#354d84"/>
        <stop offset="20%"  stop-color="#2a6d94"/>
        <stop offset="35%"  stop-color="#2386bb"/>
        <stop offset="45%"  stop-color="#1f96cf"/>
        <stop offset="55%"  stop-color="#2386bb"/>
        <stop offset="70%"  stop-color="#2a6d94"/>
        <stop offset="100%" stop-color="#354d84"/>
      </linearGradient>
    </defs>
    <!-- Spine for edits: M 90 230 Q 150 210, 230 200 -->
    <path
      id="wordmark-swoosh-line"
      fill="#2A6B99"
      d="M 90 230 L 93.04 229.09 L 96.1 228.19 L 99.19 227.31 L 102.3 226.43 L 105.44 225.58 L 108.6 224.73 L 111.78 223.89 L 114.99 223.07 L 118.22 222.27 L 121.48 221.47 L 124.76 220.69 L 128.06 219.92 L 131.39 219.16 L 134.74 218.41 L 138.12 217.68 L 141.52 216.96 L 144.95 216.26 L 148.4 215.56 L 151.87 214.88 L 155.37 214.21 L 158.89 213.55 L 162.44 212.91 L 166.01 212.28 L 169.6 211.66 L 173.22 211.06 L 176.86 210.46 L 180.53 209.88 L 184.22 209.31 L 187.94 208.76 L 191.68 208.21 L 195.45 207.68 L 199.24 207.17 L 203.05 206.66 L 206.89 206.17 L 210.75 205.69 L 214.64 205.22 L 218.55 204.76 L 222.49 204.32 L 226.45 203.89 L 230.43 203.47 L 229.57 196.53 L 225.58 197.12 L 221.61 197.73 L 217.67 198.35 L 213.76 198.98 L 209.87 199.63 L 206.01 200.28 L 202.17 200.95 L 198.36 201.63 L 194.58 202.33 L 190.82 203.04 L 187.08 203.76 L 183.38 204.49 L 179.69 205.23 L 176.04 205.99 L 172.4 206.76 L 168.8 207.54 L 165.22 208.33 L 161.66 209.14 L 158.14 209.96 L 154.63 210.79 L 151.16 211.63 L 147.7 212.49 L 144.28 213.36 L 140.88 214.24 L 137.51 215.13 L 134.16 216.04 L 130.83 216.95 L 127.54 217.88 L 124.27 218.83 L 121.02 219.78 L 117.8 220.75 L 114.61 221.73 L 111.44 222.72 L 108.3 223.72 L 105.19 224.74 L 102.1 225.77 L 99.03 226.81 L 96 227.86 L 92.99 228.92 Z"
    />

    <!-- Alternate swoosh -->
    <!-- Spine for edits: M 140 245 C 250 200, 325 242, 450 230 -->
    <!-- <path
      id="wordmark-swoosh"
      fill="url(#swoosh-linear-gradient)"
      d="M 140 245 L 146.96 242.64 L 153.81 240.49 L 160.57 238.57 L 167.23 236.84 L 173.8 235.32 L 180.28 233.97 L 186.68 232.8 L 193.01 231.79 L 199.27 230.94 L 205.46 230.24 L 211.59 229.67 L 217.67 229.23 L 223.71 228.9 L 229.71 228.68 L 235.67 228.57 L 241.61 228.54 L 247.54 228.59 L 253.44 228.72 L 259.35 228.92 L 265.25 229.17 L 271.16 229.48 L 277.08 229.82 L 283.03 230.2 L 288.99 230.61 L 294.98 231.04 L 301.01 231.48 L 307.08 231.92 L 313.18 232.37 L 319.34 232.8 L 325.54 233.22 L 331.81 233.61 L 338.13 233.97 L 344.51 234.29 L 350.96 234.57 L 357.48 234.79 L 364.07 234.96 L 370.74 235.06 L 377.48 235.09 L 384.31 235.04 L 391.22 234.9 L 398.22 234.67 L 405.32 234.35 L 412.5 233.92 L 419.79 233.38 L 427.18 232.72 L 434.68 231.95 L 442.28 231.04 L 450 230 L 442.22 230.32 L 434.58 230.51 L 427.08 230.58 L 419.69 230.53 L 412.43 230.38 L 405.29 230.14 L 398.26 229.81 L 391.32 229.4 L 384.49 228.93 L 377.75 228.4 L 371.1 227.82 L 364.52 227.2 L 358.03 226.54 L 351.59 225.87 L 345.22 225.17 L 338.91 224.48 L 332.65 223.78 L 326.43 223.09 L 320.25 222.42 L 314.1 221.78 L 307.99 221.17 L 301.89 220.61 L 295.82 220.09 L 289.76 219.64 L 283.71 219.25 L 277.67 218.93 L 271.63 218.7 L 265.59 218.55 L 259.54 218.5 L 253.49 218.56 L 247.43 218.73 L 241.35 219.02 L 235.26 219.43 L 229.15 219.98 L 223.01 220.66 L 216.86 221.49 L 210.68 222.48 L 204.46 223.62 L 198.22 224.92 L 191.94 226.4 L 185.63 228.05 L 179.27 229.88 L 172.86 231.91 L 166.41 234.12 L 159.9 236.53 L 153.33 239.14 L 146.7 241.96 L 140 245 Z"
    /> -->
  </g>
</svg>