<?xml version="1.0" encoding="UTF-8"?>
<svg xmlns="http://www.w3.org/2000/svg" xmlns:xlink="http://www.w3.org/1999/xlink" viewBox="0 0 366.58 68.76">
  <defs>
    <style>
      .cls-1 {
        fill: url(#linear-gradient-15);
      }

      .cls-2 {
        fill: url(#linear-gradient-13);
      }

      .cls-3 {
        fill: url(#linear-gradient-2);
      }

      .cls-4 {
        fill: url(#radial-gradient-9);
      }

      .cls-5 {
        fill: url(#linear-gradient-10);
      }

      .cls-6 {
        fill: url(#linear-gradient-12);
      }

      .cls-7 {
        fill: url(#linear-gradient-4);
      }

      .cls-8 {
        fill: url(#radial-gradient-5);
      }

      .cls-9 {
        fill: url(#radial-gradient);
      }

      .cls-10 {
        fill: url(#radial-gradient-3);
      }

      .cls-11 {
        fill: url(#linear-gradient-3);
      }

      .cls-12 {
        fill: url(#linear-gradient-5);
      }

      .cls-13 {
        fill: url(#linear-gradient-8);
      }

      .cls-14 {
        fill: url(#radial-gradient-8);
      }

      .cls-15 {
        fill: url(#radial-gradient-2);
      }

      .cls-16 {
        fill: url(#linear-gradient-14);
      }

      .cls-17 {
        fill: url(#radial-gradient-4);
      }

      .cls-18 {
        fill: url(#linear-gradient-17);
      }

      .cls-19 {
        fill: url(#linear-gradient-7);
      }

      .cls-20 {
        fill: url(#linear-gradient-9);
      }

      .cls-21 {
        fill: url(#linear-gradient-11);
      }

      .cls-22 {
        fill: url(#linear-gradient-19);
      }

      .cls-23 {
        fill: url(#linear-gradient-6);
      }

      .cls-24 {
        fill: url(#radial-gradient-6);
      }

      .cls-25 {
        fill: url(#radial-gradient-7);
      }

      .cls-26 {
        fill: url(#linear-gradient-16);
      }

      .cls-27 {
        fill: url(#linear-gradient);
      }

      .cls-28 {
        fill: url(#linear-gradient-18);
      }
    </style>
    <radialGradient id="radial-gradient" cx="34.55" cy="11.94" fx="34.55" fy="11.94" r="9.94" gradientUnits="userSpaceOnUse">
      <stop offset="0" stop-color="#91c83e"/>
      <stop offset=".36" stop-color="#699f39"/>
      <stop offset=".78" stop-color="#417533"/>
      <stop offset="1" stop-color="#326632"/>
    </radialGradient>
    <radialGradient id="radial-gradient-2" cx="55.52" cy="19.05" fx="55.52" fy="19.05" r="46.17" xlink:href="#radial-gradient"/>
    <radialGradient id="radial-gradient-3" cx="30.54" cy="29.44" fx="30.54" fy="29.44" r="33.39" xlink:href="#radial-gradient"/>
    <radialGradient id="radial-gradient-4" cx="388.51" cy="111.92" fx="388.51" fy="111.92" r="46.17" gradientTransform="translate(412.17 161.64) rotate(-180)" gradientUnits="userSpaceOnUse">
      <stop offset="0" stop-color="#1f9dd9"/>
      <stop offset="1" stop-color="#272971"/>
    </radialGradient>
    <radialGradient id="radial-gradient-5" cx="363.52" cy="122.32" fx="363.52" fy="122.32" r="33.39" xlink:href="#radial-gradient-4"/>
    <radialGradient id="radial-gradient-6" cx="5.85" cy="24.4" fx="5.85" fy="24.4" r="55.63" gradientTransform="matrix(1,0,0,1,0,0)" xlink:href="#radial-gradient-4"/>
    <radialGradient id="radial-gradient-7" cx="48.86" cy="1.91" fx="48.86" fy="1.91" r="48.36" gradientTransform="matrix(1,0,0,1,0,0)" xlink:href="#radial-gradient-4"/>
    <radialGradient id="radial-gradient-8" cx="45.92" cy="70.76" fx="45.92" fy="70.76" r="44.63" xlink:href="#radial-gradient"/>
    <radialGradient id="radial-gradient-9" cx="75.08" cy="28.33" fx="75.08" fy="28.33" r="41.55" xlink:href="#radial-gradient"/>
    <linearGradient id="linear-gradient" x1="91.74" y1="21.27" x2="91.74" y2="46.33" gradientUnits="userSpaceOnUse">
      <stop offset="0" stop-color="#086b38"/>
      <stop offset=".52" stop-color="#4f9b3c"/>
      <stop offset="1" stop-color="#8dc541"/>
    </linearGradient>
    <linearGradient id="linear-gradient-2" x1="107.58" x2="107.58" y2="46.84" xlink:href="#linear-gradient"/>
    <linearGradient id="linear-gradient-3" x1="124.15" x2="124.15" y2="46.72" xlink:href="#linear-gradient"/>
    <linearGradient id="linear-gradient-4" x1="139.79" y1="20.8" x2="139.79" xlink:href="#linear-gradient"/>
    <linearGradient id="linear-gradient-5" x1="159.04" y1="21.27" x2="159.04" y2="46.33" gradientUnits="userSpaceOnUse">
      <stop offset="0" stop-color="#393f5c"/>
      <stop offset=".1" stop-color="#354c6d"/>
      <stop offset=".39" stop-color="#2b6e9b"/>
      <stop offset=".64" stop-color="#2387bb"/>
      <stop offset=".86" stop-color="#1f96cf"/>
      <stop offset="1" stop-color="#1e9cd7"/>
    </linearGradient>
    <linearGradient id="linear-gradient-6" x1="173.93" x2="173.93" xlink:href="#linear-gradient-5"/>
    <linearGradient id="linear-gradient-7" x1="190.07" x2="190.07" xlink:href="#linear-gradient-5"/>
    <linearGradient id="linear-gradient-8" x1="202.29" y1="20.8" x2="202.29" y2="46.84" xlink:href="#linear-gradient-5"/>
    <linearGradient id="linear-gradient-9" x1="211.38" x2="211.38" xlink:href="#linear-gradient-5"/>
    <linearGradient id="linear-gradient-10" x1="222.55" y1="20.8" x2="222.55" y2="46.84" xlink:href="#linear-gradient-5"/>
    <linearGradient id="linear-gradient-11" x1="237.67" y1="20.8" x2="237.67" xlink:href="#linear-gradient-5"/>
    <linearGradient id="linear-gradient-12" x1="252.23" x2="252.23" xlink:href="#linear-gradient-5"/>
    <linearGradient id="linear-gradient-13" x1="270.13" y1="20.33" x2="270.13" xlink:href="#linear-gradient-5"/>
    <linearGradient id="linear-gradient-14" x1="285.95" x2="285.95" xlink:href="#linear-gradient-5"/>
    <linearGradient id="linear-gradient-15" x1="301.4" x2="301.4" xlink:href="#linear-gradient-5"/>
    <linearGradient id="linear-gradient-16" x1="315.89" x2="315.89" y2="46.65" xlink:href="#linear-gradient-5"/>
    <linearGradient id="linear-gradient-17" x1="331.02" y1="20.8" x2="331.02" xlink:href="#linear-gradient-5"/>
    <linearGradient id="linear-gradient-18" x1="345.72" x2="345.72" xlink:href="#linear-gradient-5"/>
    <linearGradient id="linear-gradient-19" x1="359.34" x2="359.34" xlink:href="#linear-gradient-5"/>
  </defs>
  <g id="Layer_1" data-name="Layer 1">
    <g>
      <g>
        <g>
          <path class="cls-9" d="M31.23,14.49c0,3.3,2.67,5.97,5.97,5.97s5.97-2.67,5.97-5.97-2.67-5.97-5.97-5.97-5.97,2.67-5.97,5.97Z"/>
          <path class="cls-15" d="M70.64,13.65c-7.25,2.33-33.58,17.37-43.3,17.65-4.92-.13-11.82-3.81-9.41-14.11.02-.39.06-.63.06-.63-13.03,47.55,48.85.22,53.85-2.17,4.99-2.39,6.51,1.09,6.51,1.09,0,0-.46-4.15-7.71-1.82Z"/>
          <path class="cls-10" d="M47.95,20.68c-29.29,13.28-30.18-.33-30.02-3.5-2.4,10.3,4.49,13.98,9.41,14.11,9.71-.27,36.05-15.32,43.3-17.65,7.25-2.33,7.71,1.82,7.71,1.82,0,0,2.98-9.92-30.4,5.21Z"/>
        </g>
        <g>
          <path class="cls-17" d="M8.55,55.12c7.25-2.33,33.58-17.38,43.3-17.65,4.92.13,11.82,3.81,9.41,14.11-.02.39-.06.63-.06.63,13.03-47.55-48.85-.22-53.85,2.17-4.99,2.39-6.51-1.09-6.51-1.09,0,0,.46,4.15,7.71,1.83Z"/>
          <path class="cls-8" d="M31.24,48.08c29.29-13.28,30.18.33,30.02,3.5,2.4-10.3-4.49-13.98-9.41-14.11-9.71.27-36.05,15.32-43.3,17.65-7.25,2.32-7.71-1.83-7.71-1.83,0,0-2.98,9.92,30.4-5.21Z"/>
        </g>
      </g>
      <path class="cls-24" d="M39.59,1.46c9.8,0,18.59,4.28,24.62,11.07.52-.16,1.03-.31,1.52-.45C59.42,4.7,50.05,0,39.59,0,20.63,0,5.21,15.42,5.21,34.38c0,6.05,1.58,11.74,4.33,16.68.38-.25.79-.52,1.21-.8-2.6-4.71-4.08-10.12-4.08-15.88C6.67,16.2,21.41,1.46,39.59,1.46Z"/>
      <path class="cls-25" d="M11.83,49.55c-2.47-4.51-3.88-9.67-3.88-15.17C7.95,16.93,22.14,2.74,39.59,2.74c9.19,0,17.48,3.94,23.26,10.22.46-.15.91-.29,1.35-.43-6.03-6.79-14.82-11.07-24.62-11.07C21.41,1.46,6.67,16.2,6.67,34.38c0,5.76,1.48,11.17,4.08,15.88.16-.11.32-.21.49-.32.19-.13.39-.26.59-.39Z"/>
      <path class="cls-14" d="M69.64,17.7c-.38.25-.79.52-1.21.8,2.6,4.71,4.08,10.12,4.08,15.88,0,18.18-14.74,32.92-32.92,32.92-9.8,0-18.59-4.28-24.62-11.07-.52.16-1.03.31-1.52.45,6.31,7.39,15.68,12.08,26.14,12.08,18.96,0,34.38-15.42,34.38-34.38,0-6.05-1.58-11.74-4.33-16.69Z"/>
      <path class="cls-4" d="M39.59,67.3c18.18,0,32.92-14.74,32.92-32.92,0-5.76-1.48-11.17-4.08-15.88-.16.11-.32.21-.49.32-.19.13-.39.26-.59.39,2.47,4.5,3.88,9.67,3.88,15.17,0,17.45-14.2,31.64-31.65,31.64-9.19,0-17.48-3.94-23.27-10.22-.46.15-.91.29-1.35.43,6.03,6.79,14.82,11.07,24.62,11.07Z"/>
    </g>
  </g>
  <g id="Layer_3" data-name="Layer 3">
    <g>
      <path class="cls-27" d="M95.38,46.33c-1.84-3.24-3.95-7.46-5.98-11.52-.41-.78-.6-.98-.96-.94v7.93c0,3.55.19,3.83,2.03,4.1v.43h-6.17v-.43c1.73-.27,1.97-.55,1.97-4.1v-15.97c0-3.59-.19-3.83-1.97-4.14v-.43h6.09v.43c-1.78.31-1.95.55-1.95,4.14v7.46c.41-.23.93-.86,1.48-1.72,1.34-2.11,3.15-5,4.55-7.65.77-1.44.63-1.84-.58-2.07l-.63-.12v-.47h5.48v.43c-1.62.27-2.19.59-3.89,3.24-.93,1.44-2.6,4.06-4.33,6.83,2.03,4.06,4.44,8.55,5.76,11.01,1.37,2.38,1.62,2.85,2.91,3.12v.43h-3.81Z"/>
      <path class="cls-3" d="M115.42,21.7c-1.51.27-1.89.74-2,2.42-.05,1.13-.14,3.16-.14,6.36v4.45c0,4.22-.44,7.3-1.78,9.49-1.1,1.72-2.66,2.42-4.14,2.42-1.29,0-2.71-.47-3.73-1.68-1.43-1.72-1.95-4.41-1.95-8.55v-10.78c0-3.63-.19-3.83-1.95-4.14v-.43h6.09v.43c-1.75.27-1.95.51-1.95,4.14v9.68c0,4.72.66,9.72,4.28,9.72,3.98,0,4.41-5.9,4.41-11.21v-3.55c0-3.16-.05-5.23-.14-6.44-.11-1.6-.44-2.11-2.3-2.34v-.43h5.29v.43Z"/>
      <path class="cls-11" d="M132.2,21.7c-1.48.19-1.86.66-1.95,2.38-.05,1.13-.16,3.2-.16,6.64v16.01h-.52l-10.09-20.69h-.05v10.7c0,3.44.11,5.51.16,6.68.08,1.8.6,2.3,2.44,2.5v.43h-5.59v-.43c1.62-.19,2.06-.66,2.17-2.58.05-1.09.14-3.16.14-6.6v-9.53c0-2.34-.03-2.89-.47-3.79-.49-1.05-.82-1.52-2.17-1.72v-.43h3.62l9.62,19.17h.05v-9.72c0-3.44-.08-5.58-.14-6.6-.11-1.76-.58-2.26-2.33-2.42v-.43h5.26v.43Z"/>
      <path class="cls-7" d="M141.46,46.33v-.43c1.54-.27,1.81-.66,1.48-2.11-.33-1.6-.88-4.26-1.54-7.15h-4.74c-.38,1.64-.9,4.14-1.29,6.17-.47,2.42-.22,2.77,1.65,3.08v.43h-4.99l.03-.43c1.45-.27,1.78-.59,2.58-3.83l5.07-21.05.44-.23c1.54,6.91,3.04,13.9,4.83,21.32.77,3.24,1.01,3.51,2.58,3.79v.43h-6.09ZM139.13,25.95h-.08c-.74,3.2-1.48,6.52-2.17,9.68h4.3l-2.06-9.68Z"/>
      <path class="cls-12" d="M158.96,21.27c1.86,0,3.24.47,4.22,1.56,1.04,1.13,1.73,2.93,1.73,5.43,0,4.88-2.52,7.3-5.02,7.81-.3.04-.6.04-.85-.04l-1.67-.7v6.79c0,3.24.19,3.51,2.17,3.79v.43h-6.36v-.43c1.81-.27,2-.55,2-3.79v-16.56c0-3.32-.11-3.51-1.84-3.87v-.43h5.62ZM157.37,34.62c.33.19.88.39,1.54.39,1.43,0,3.54-1.25,3.54-6.64,0-4.41-1.54-6.36-3.76-6.36-.47,0-.85.12-1.01.35-.25.23-.3.66-.3,1.8v10.46Z"/>
      <path class="cls-23" d="M181.85,21.7c-1.84.31-2.06.55-2.06,3.94v16.36c0,3.36.22,3.59,2.06,3.9v.43h-6.31v-.43c1.84-.27,2.06-.55,2.06-3.9v-8.47h-7.38v8.47c0,3.4.19,3.63,1.97,3.9v.43h-6.14v-.43c1.75-.27,1.97-.51,1.97-3.9v-16.36c0-3.44-.22-3.67-2.03-3.94v-.43h6.09v.43c-1.67.27-1.86.51-1.86,3.94v6.87h7.38v-6.87c0-3.4-.22-3.63-1.92-3.94v-.43h6.17v.43Z"/>
      <path class="cls-19" d="M197.31,21.7c-1.62.35-1.84.66-2.6,2.69-1.26,3.2-2.14,5.86-3.21,9.18-.33.98-.38,1.37-.38,2.34v5.94c0,3.51.22,3.75,2.39,4.06v.43h-6.88v-.43c2.14-.27,2.3-.55,2.3-4.06v-5.62c0-.78-.06-1.13-.27-1.87-.88-2.81-1.86-5.47-3.18-9.21-1.01-2.93-1.18-3.2-2.63-3.44v-.43h5.84v.43c-1.64.35-1.75.66-1.32,1.99,1.18,3.59,2.33,6.91,3.4,10.03.9-2.66,2.17-6.36,2.91-8.98.66-2.38.49-2.69-1.4-3.05v-.43h5.04v.43Z"/>
      <path class="cls-13" d="M206.06,26.38c-.49-2.46-1.37-4.8-3.51-4.8-1.81,0-2.71,2.11-2.71,4.45,0,2.77,1.12,4.18,3.04,5.82,1.84,1.64,4.28,3.67,4.28,7.89,0,3.98-2.22,7.11-5.46,7.11-.91,0-1.62-.23-2.25-.47-.63-.27-1.1-.59-1.4-.78-.22-.98-.47-3.79-.63-5.43l.36-.2c.38,2.34,1.67,6.05,4.25,6.05,2,0,3.04-2.15,3.04-4.92,0-2.62-1.29-4.22-3.07-5.86-1.75-1.6-4.11-3.67-4.11-7.73,0-3.63,1.89-6.72,5.15-6.72,1.26,0,2.25.47,2.91.74.11,1.29.25,2.89.44,4.69l-.33.16Z"/>
      <path class="cls-20" d="M208.2,46.33v-.43c1.86-.27,2.08-.55,2.08-3.94v-16.24c0-3.48-.19-3.71-2.08-4.02v-.43h6.36v.43c-1.92.31-2.08.55-2.08,4.02v16.24c0,3.36.17,3.67,2.08,3.94v.43h-6.36Z"/>
      <path class="cls-5" d="M229.2,40.79c-.3,1.48-.82,3.83-1.26,5.27-.63.2-2.41.78-3.81.78-5.84,0-8.23-6.44-8.23-12.73,0-8.04,3.54-13.31,8.8-13.31,1.67,0,3.07.55,3.7.74.19,2.15.3,3.51.44,5.11l-.33.12c-.66-3.71-2.22-5.19-4.36-5.19-3.78,0-5.7,5.9-5.7,11.87,0,7.15,2.19,12.61,5.73,12.61,2.25,0,3.7-2.46,4.69-5.39l.33.12Z"/>
      <path class="cls-21" d="M239.34,46.33v-.43c1.54-.27,1.81-.66,1.48-2.11-.33-1.6-.88-4.26-1.54-7.15h-4.74c-.38,1.64-.91,4.14-1.29,6.17-.47,2.42-.22,2.77,1.64,3.08v.43h-4.99l.03-.43c1.45-.27,1.78-.59,2.58-3.83l5.07-21.05.44-.23c1.54,6.91,3.04,13.9,4.83,21.32.77,3.24,1.01,3.51,2.58,3.79v.43h-6.09ZM237.01,25.95h-.08c-.74,3.2-1.48,6.52-2.17,9.68h4.3l-2.06-9.68Z"/>
      <path class="cls-6" d="M258.12,40.87c-.17,1.01-.66,4.37-.88,5.47h-10.91v-.43c1.97-.27,2.19-.55,2.19-3.79v-16.59c0-3.32-.19-3.51-1.92-3.83v-.43h6.06v.43c-1.75.31-1.95.51-1.95,3.83v16.28c0,2.11.11,2.93.55,3.32.49.35,1.18.43,2.25.43,1.64,0,2.47-.23,3.02-1.25.47-.94.88-2.11,1.26-3.59l.33.16Z"/>
      <path class="cls-2" d="M276.35,26.58c-.25-1.6-.49-2.42-.8-3.24-.41-1.02-.99-1.29-2.85-1.29h-1.48v20.11c0,3.2.16,3.51,2.3,3.75v.43h-6.74v-.43c2.06-.23,2.22-.55,2.22-3.75v-20.11h-1.18c-2.25,0-2.8.35-3.15,1.41-.25.74-.49,1.76-.74,3.12h-.36c.11-1.76.25-4.29.3-6.25h.22c.27.74.74.94,1.37.94h9.43c.66,0,.88-.23,1.29-.94h.25c0,1.6.11,4.45.25,6.17l-.33.08Z"/>
      <path class="cls-16" d="M293.87,21.7c-1.84.31-2.06.55-2.06,3.94v16.36c0,3.36.22,3.59,2.06,3.9v.43h-6.31v-.43c1.84-.27,2.06-.55,2.06-3.9v-8.47h-7.38v8.47c0,3.4.19,3.63,1.97,3.9v.43h-6.14v-.43c1.75-.27,1.97-.51,1.97-3.9v-16.36c0-3.44-.22-3.67-2.03-3.94v-.43h6.09v.43c-1.67.27-1.86.51-1.86,3.94v6.87h7.38v-6.87c0-3.4-.22-3.63-1.92-3.94v-.43h6.17v.43Z"/>
      <path class="cls-1" d="M307.58,40.83c-.14,1.02-.66,4.33-.88,5.51h-11.49v-.43c2.17-.27,2.39-.51,2.39-3.98v-16.28c0-3.51-.22-3.67-2-3.94v-.43h10.53c.03.82.14,3.51.25,5.04l-.36.12c-.22-1.48-.49-2.54-.9-3.24-.47-.9-1.21-1.13-3.1-1.13h-1.45c-.69,0-.77.12-.77,1.29v9.53h2.28c2.28,0,2.41-.35,2.69-2.69h.33v6.48h-.33c-.3-2.5-.47-2.81-2.69-2.81h-2.28v7.93c0,2.03.14,2.85.49,3.28.41.43,1.07.51,2.47.51,2.17,0,2.71-.43,3.29-1.41.41-.78.85-2.11,1.18-3.44l.36.12Z"/>
      <path class="cls-26" d="M323.04,46.65c-.19,0-.47,0-.71-.04-2.36-.2-3.29-1.33-4.28-3.55-.77-1.68-1.75-4.26-2.49-6.21-.44-1.17-.74-1.76-1.84-1.8h-.77v6.83c0,3.48.19,3.75,2.08,4.02v.43h-6.39v-.43c1.97-.27,2.14-.55,2.14-4.02v-16.2c0-3.44-.19-3.67-2.03-3.98v-.43h5.95c1.92,0,3.1.39,4.03,1.37,1.01,1.01,1.67,2.66,1.67,4.96,0,3.28-1.43,5.27-3.35,6.56.44,1.37,1.51,3.98,2.25,5.66.88,2.03,1.45,3.24,2.11,4.37.77,1.37,1.15,1.76,1.7,2.03l-.08.43ZM314,34.35c1.18,0,1.97-.27,2.66-1.13.88-1.05,1.34-2.73,1.34-5,0-4.33-1.7-6.21-3.45-6.21-.63,0-1.18.16-1.34.35-.16.23-.25.55-.25,1.6v10.39h1.04Z"/>
      <path class="cls-18" d="M332.7,46.33v-.43c1.54-.27,1.81-.66,1.48-2.11-.33-1.6-.88-4.26-1.54-7.15h-4.74c-.38,1.64-.9,4.14-1.29,6.17-.47,2.42-.22,2.77,1.64,3.08v.43h-4.99l.03-.43c1.45-.27,1.78-.59,2.58-3.83l5.07-21.05.44-.23c1.54,6.91,3.04,13.9,4.83,21.32.77,3.24,1.01,3.51,2.58,3.79v.43h-6.09ZM330.36,25.95h-.08c-.74,3.2-1.48,6.52-2.17,9.68h4.3l-2.06-9.68Z"/>
      <path class="cls-28" d="M345.64,21.27c1.86,0,3.24.47,4.22,1.56,1.04,1.13,1.73,2.93,1.73,5.43,0,4.88-2.52,7.3-5.02,7.81-.3.04-.6.04-.85-.04l-1.67-.7v6.79c0,3.24.19,3.51,2.17,3.79v.43h-6.36v-.43c1.81-.27,2-.55,2-3.79v-16.56c0-3.32-.11-3.51-1.84-3.87v-.43h5.62ZM344.04,34.62c.33.19.88.39,1.54.39,1.43,0,3.54-1.25,3.54-6.64,0-4.41-1.54-6.36-3.76-6.36-.47,0-.85.12-1.01.35-.25.23-.3.66-.3,1.8v10.46Z"/>
      <path class="cls-22" d="M366.58,21.7c-1.62.35-1.84.66-2.6,2.69-1.26,3.2-2.14,5.86-3.21,9.18-.33.98-.38,1.37-.38,2.34v5.94c0,3.51.22,3.75,2.39,4.06v.43h-6.88v-.43c2.14-.27,2.3-.55,2.3-4.06v-5.62c0-.78-.06-1.13-.27-1.87-.88-2.81-1.86-5.47-3.18-9.21-1.01-2.93-1.18-3.2-2.63-3.44v-.43h5.84v.43c-1.64.35-1.75.66-1.32,1.99,1.18,3.59,2.33,6.91,3.4,10.03.9-2.66,2.17-6.36,2.91-8.98.66-2.38.49-2.69-1.4-3.05v-.43h5.04v.43Z"/>
    </g>
  </g>
</svg>