<?xml version="1.0" encoding="UTF-8"?>
<svg xmlns="http://www.w3.org/2000/svg" xmlns:xlink="http://www.w3.org/1999/xlink" viewBox="0 0 366.36 85.28">
  <defs>
    <style>
      .cls-1 {
        fill: url(#linear-gradient-15);
      }

      .cls-2 {
        fill: url(#linear-gradient-13);
      }

      .cls-3 {
        fill: url(#linear-gradient-2);
      }

      .cls-4 {
        fill: url(#radial-gradient-9);
      }

      .cls-5 {
        fill: url(#linear-gradient-10);
      }

      .cls-6 {
        fill: url(#linear-gradient-12);
      }

      .cls-7 {
        fill: url(#linear-gradient-4);
      }

      .cls-8 {
        fill: url(#radial-gradient-5);
      }

      .cls-9 {
        fill: url(#radial-gradient);
      }

      .cls-10 {
        fill: url(#radial-gradient-3);
      }

      .cls-11 {
        fill: url(#linear-gradient-3);
      }

      .cls-12 {
        fill: url(#linear-gradient-5);
      }

      .cls-13 {
        fill: url(#linear-gradient-8);
      }

      .cls-14 {
        fill: url(#radial-gradient-8);
      }

      .cls-15 {
        fill: url(#radial-gradient-2);
      }

      .cls-16 {
        fill: url(#linear-gradient-14);
      }

      .cls-17 {
        fill: url(#radial-gradient-4);
      }

      .cls-18 {
        fill: url(#linear-gradient-17);
      }

      .cls-19 {
        fill: url(#linear-gradient-7);
      }

      .cls-20 {
        fill: url(#linear-gradient-9);
      }

      .cls-21 {
        fill: url(#linear-gradient-11);
      }

      .cls-22 {
        fill: url(#linear-gradient-19);
      }

      .cls-23 {
        fill: url(#linear-gradient-6);
      }

      .cls-24 {
        fill: url(#radial-gradient-6);
      }

      .cls-25 {
        fill: url(#radial-gradient-7);
      }

      .cls-26 {
        fill: url(#linear-gradient-16);
      }

      .cls-27 {
        fill: url(#linear-gradient);
      }

      .cls-28 {
        fill: url(#linear-gradient-18);
      }
    </style>
    <radialGradient id="radial-gradient" cx="29.17" cy="23.26" fx="29.17" fy="23.26" r="8.58" gradientUnits="userSpaceOnUse">
      <stop offset="0" stop-color="#91c83e"/>
      <stop offset=".36" stop-color="#699f39"/>
      <stop offset=".78" stop-color="#417533"/>
      <stop offset="1" stop-color="#326632"/>
    </radialGradient>
    <radialGradient id="radial-gradient-2" cx="47.28" cy="29.4" fx="47.28" fy="29.4" r="39.87" xlink:href="#radial-gradient"/>
    <radialGradient id="radial-gradient-3" cx="25.7" cy="38.38" fx="25.7" fy="38.38" r="28.84" xlink:href="#radial-gradient"/>
    <radialGradient id="radial-gradient-4" cx="392.4" cy="123.86" fx="392.4" fy="123.86" r="39.87" gradientTransform="translate(412.17 179.74) rotate(-180)" gradientUnits="userSpaceOnUse">
      <stop offset="0" stop-color="#1f9dd9"/>
      <stop offset="1" stop-color="#272971"/>
    </radialGradient>
    <radialGradient id="radial-gradient-5" cx="370.83" cy="132.84" fx="370.83" fy="132.84" r="28.84" xlink:href="#radial-gradient-4"/>
    <radialGradient id="radial-gradient-6" cx="4.39" cy="34.02" fx="4.39" fy="34.02" r="48.03" gradientTransform="matrix(1,0,0,1,0,0)" xlink:href="#radial-gradient-4"/>
    <radialGradient id="radial-gradient-7" cx="41.53" cy="14.6" fx="41.53" fy="14.6" r="41.76" gradientTransform="matrix(1,0,0,1,0,0)" xlink:href="#radial-gradient-4"/>
    <radialGradient id="radial-gradient-8" cx="38.99" cy="74.05" fx="38.99" fy="74.05" r="38.54" xlink:href="#radial-gradient"/>
    <radialGradient id="radial-gradient-9" cx="64.17" cy="37.41" fx="64.17" fy="37.41" r="35.88" xlink:href="#radial-gradient"/>
    <linearGradient id="linear-gradient" x1="76.28" y1="29.76" x2="76.28" y2="55.96" gradientUnits="userSpaceOnUse">
      <stop offset="0" stop-color="#393f5c"/>
      <stop offset=".1" stop-color="#354c6d"/>
      <stop offset=".39" stop-color="#2b6e9b"/>
      <stop offset=".64" stop-color="#2387bb"/>
      <stop offset=".86" stop-color="#1f96cf"/>
      <stop offset="1" stop-color="#1e9cd7"/>
    </linearGradient>
    <linearGradient id="linear-gradient-2" x1="92.83" x2="92.83" y2="56.49" xlink:href="#linear-gradient"/>
    <linearGradient id="linear-gradient-3" x1="110.15" x2="110.15" y2="56.37" xlink:href="#linear-gradient"/>
    <linearGradient id="linear-gradient-4" x1="126.5" y1="29.27" x2="126.5" xlink:href="#linear-gradient"/>
    <linearGradient id="linear-gradient-5" x1="146.61" y1="29.76" x2="146.61" y2="55.96" gradientUnits="userSpaceOnUse">
      <stop offset="0" stop-color="#086b38"/>
      <stop offset=".52" stop-color="#4f9b3c"/>
      <stop offset="1" stop-color="#8dc541"/>
    </linearGradient>
    <linearGradient id="linear-gradient-6" x1="162.17" x2="162.17" xlink:href="#linear-gradient-5"/>
    <linearGradient id="linear-gradient-7" x1="179.05" x2="179.05" xlink:href="#linear-gradient-5"/>
    <linearGradient id="linear-gradient-8" x1="191.81" y1="29.27" x2="191.81" y2="56.49" xlink:href="#linear-gradient-5"/>
    <linearGradient id="linear-gradient-9" x1="201.31" x2="201.31" xlink:href="#linear-gradient-5"/>
    <linearGradient id="linear-gradient-10" x1="212.99" y1="29.27" x2="212.99" y2="56.49" xlink:href="#linear-gradient-5"/>
    <linearGradient id="linear-gradient-11" x1="228.79" y1="29.27" x2="228.79" xlink:href="#linear-gradient-5"/>
    <linearGradient id="linear-gradient-12" x1="244.01" x2="244.01" xlink:href="#linear-gradient-5"/>
    <linearGradient id="linear-gradient-13" x1="262.72" y1="28.78" x2="262.72" xlink:href="#linear-gradient-5"/>
    <linearGradient id="linear-gradient-14" x1="279.26" x2="279.26" xlink:href="#linear-gradient-5"/>
    <linearGradient id="linear-gradient-15" x1="295.4" x2="295.4" xlink:href="#linear-gradient-5"/>
    <linearGradient id="linear-gradient-16" x1="310.55" x2="310.55" y2="56.29" xlink:href="#linear-gradient-5"/>
    <linearGradient id="linear-gradient-17" x1="326.36" y1="29.27" x2="326.36" xlink:href="#linear-gradient-5"/>
    <linearGradient id="linear-gradient-18" x1="341.72" x2="341.72" xlink:href="#linear-gradient-5"/>
    <linearGradient id="linear-gradient-19" x1="355.97" x2="355.97" xlink:href="#linear-gradient-5"/>
  </defs>
  <g id="Layer_1" data-name="Layer 1">
    <g>
      <g>
        <g>
          <path class="cls-9" d="M26.3,25.46c0,2.85,2.31,5.16,5.16,5.16s5.16-2.31,5.16-5.16-2.31-5.16-5.16-5.16-5.16,2.31-5.16,5.16Z"/>
          <path class="cls-15" d="M60.33,24.73c-6.26,2.01-29,15-37.39,15.24-4.25-.11-10.21-3.29-8.13-12.18.02-.34.05-.54.05-.54-11.25,41.06,42.19.19,46.5-1.87,4.31-2.06,5.63.94,5.63.94,0,0-.4-3.58-6.66-1.58Z"/>
          <path class="cls-10" d="M40.74,30.81c-25.3,11.47-26.06-.29-25.92-3.02-2.08,8.89,3.88,12.08,8.13,12.18,8.39-.24,31.13-13.23,37.39-15.24,6.26-2.01,6.66,1.58,6.66,1.58,0,0,2.58-8.56-26.25,4.5Z"/>
        </g>
        <g>
          <path class="cls-17" d="M6.72,60.55c6.26-2.01,29-15,37.39-15.24,4.25.11,10.21,3.29,8.13,12.19-.02.34-.05.54-.05.54,11.25-41.06-42.19-.19-46.5,1.88-4.31,2.06-5.63-.94-5.63-.94,0,0,.4,3.58,6.66,1.58Z"/>
          <path class="cls-8" d="M26.31,54.47c25.3-11.47,26.06.29,25.92,3.02,2.08-8.89-3.88-12.08-8.13-12.19-8.39.24-31.13,13.23-37.39,15.24C.46,62.55.06,58.97.06,58.97c0,0-2.58,8.56,26.25-4.5Z"/>
        </g>
      </g>
      <path class="cls-24" d="M33.53,14.21c8.46,0,16.05,3.7,21.26,9.56.45-.14.89-.27,1.31-.39-5.45-6.38-13.54-10.43-22.57-10.43-16.37,0-29.69,13.32-29.69,29.69,0,5.23,1.36,10.14,3.74,14.41.33-.22.68-.45,1.04-.69-2.24-4.07-3.52-8.74-3.52-13.71,0-15.7,12.73-28.43,28.43-28.43Z"/>
      <path class="cls-25" d="M9.55,55.73c-2.13-3.89-3.35-8.35-3.35-13.1,0-15.07,12.26-27.33,27.33-27.33,7.94,0,15.09,3.4,20.09,8.83.4-.13.79-.25,1.17-.37-5.21-5.86-12.8-9.56-21.26-9.56-15.7,0-28.43,12.73-28.43,28.43,0,4.97,1.28,9.65,3.52,13.71.14-.09.28-.18.42-.28.16-.11.34-.22.51-.34Z"/>
      <path class="cls-14" d="M59.47,28.23c-.33.22-.68.45-1.04.69,2.24,4.07,3.52,8.74,3.52,13.71,0,15.7-12.73,28.43-28.43,28.43-8.46,0-16.05-3.7-21.26-9.56-.45.14-.89.27-1.31.39,5.45,6.38,13.54,10.43,22.57,10.43,16.37,0,29.69-13.32,29.69-29.69,0-5.23-1.36-10.14-3.74-14.41Z"/>
      <path class="cls-4" d="M33.53,71.07c15.7,0,28.43-12.73,28.43-28.43,0-4.97-1.28-9.65-3.52-13.71-.14.09-.28.18-.42.28-.16.11-.34.23-.51.34,2.13,3.89,3.35,8.35,3.35,13.1,0,15.07-12.26,27.33-27.33,27.33-7.94,0-15.09-3.4-20.09-8.83-.4.13-.79.25-1.17.37,5.21,5.86,12.8,9.56,21.26,9.56Z"/>
    </g>
  </g>
  <g id="Layer_3" data-name="Layer 3">
    <g>
      <path class="cls-27" d="M80.07,55.96c-1.92-3.39-4.13-7.79-6.25-12.04-.43-.82-.63-1.02-1-.98v8.28c0,3.71.2,4,2.12,4.29v.45h-6.45v-.45c1.81-.29,2.06-.57,2.06-4.29v-16.69c0-3.75-.2-4-2.06-4.33v-.45h6.36v.45c-1.86.33-2.03.57-2.03,4.33v7.8c.43-.25.97-.9,1.55-1.8,1.4-2.2,3.3-5.22,4.76-8,.8-1.51.66-1.92-.6-2.16l-.66-.12v-.49h5.73v.45c-1.69.29-2.29.61-4.07,3.39-.97,1.51-2.72,4.24-4.53,7.14,2.12,4.24,4.64,8.94,6.02,11.51,1.43,2.49,1.69,2.98,3.04,3.26v.45h-3.98Z"/>
      <path class="cls-3" d="M101.02,30.21c-1.58.29-1.98.78-2.09,2.53-.06,1.18-.14,3.31-.14,6.65v4.65c0,4.41-.46,7.63-1.86,9.92-1.15,1.8-2.78,2.53-4.33,2.53-1.35,0-2.84-.49-3.9-1.75-1.49-1.8-2.03-4.61-2.03-8.94v-11.26c0-3.8-.2-4-2.03-4.33v-.45h6.36v.45c-1.83.29-2.03.53-2.03,4.33v10.12c0,4.94.69,10.16,4.47,10.16,4.15,0,4.61-6.16,4.61-11.71v-3.71c0-3.31-.06-5.47-.14-6.73-.11-1.67-.46-2.2-2.41-2.45v-.45h5.53v.45Z"/>
      <path class="cls-11" d="M118.56,30.21c-1.55.2-1.95.69-2.03,2.49-.06,1.18-.17,3.35-.17,6.94v16.73h-.54l-10.54-21.63h-.06v11.18c0,3.59.11,5.75.17,6.98.09,1.88.63,2.41,2.55,2.61v.45h-5.85v-.45c1.69-.2,2.15-.69,2.26-2.69.06-1.14.14-3.31.14-6.9v-9.96c0-2.45-.03-3.02-.49-3.96-.52-1.1-.86-1.59-2.26-1.8v-.45h3.78l10.06,20.04h.06v-10.16c0-3.59-.09-5.84-.14-6.9-.11-1.84-.6-2.37-2.44-2.53v-.45h5.5v.45Z"/>
      <path class="cls-7" d="M128.24,55.96v-.45c1.6-.29,1.89-.69,1.55-2.2-.34-1.67-.92-4.45-1.6-7.47h-4.96c-.4,1.71-.95,4.33-1.35,6.45-.49,2.53-.23,2.9,1.72,3.22v.45h-5.22l.03-.45c1.52-.29,1.86-.61,2.69-4l5.3-22,.46-.24c1.6,7.22,3.18,14.53,5.04,22.28.8,3.39,1.06,3.67,2.69,3.96v.45h-6.36ZM125.81,34.66h-.09c-.77,3.35-1.55,6.81-2.26,10.12h4.5l-2.15-10.12Z"/>
      <path class="cls-12" d="M146.53,29.76c1.95,0,3.38.49,4.41,1.63,1.09,1.18,1.8,3.06,1.8,5.67,0,5.1-2.64,7.63-5.24,8.16-.32.04-.63.04-.89-.04l-1.75-.73v7.1c0,3.39.2,3.67,2.26,3.96v.45h-6.65v-.45c1.89-.29,2.09-.57,2.09-3.96v-17.3c0-3.47-.11-3.67-1.92-4.04v-.45h5.87ZM144.86,43.72c.34.2.92.41,1.6.41,1.49,0,3.7-1.31,3.7-6.94,0-4.61-1.6-6.65-3.93-6.65-.49,0-.89.12-1.06.37-.26.24-.32.69-.32,1.88v10.94Z"/>
      <path class="cls-23" d="M170.45,30.21c-1.92.33-2.15.57-2.15,4.12v17.1c0,3.51.23,3.75,2.15,4.08v.45h-6.59v-.45c1.92-.29,2.15-.57,2.15-4.08v-8.86h-7.71v8.86c0,3.55.2,3.8,2.06,4.08v.45h-6.42v-.45c1.83-.29,2.06-.53,2.06-4.08v-17.1c0-3.59-.23-3.84-2.12-4.12v-.45h6.36v.45c-1.75.29-1.95.53-1.95,4.12v7.18h7.71v-7.18c0-3.55-.23-3.8-2.01-4.12v-.45h6.45v.45Z"/>
      <path class="cls-19" d="M186.61,30.21c-1.69.37-1.92.69-2.72,2.82-1.32,3.35-2.23,6.12-3.35,9.59-.34,1.02-.4,1.43-.4,2.45v6.2c0,3.67.23,3.92,2.49,4.24v.45h-7.19v-.45c2.23-.29,2.41-.57,2.41-4.24v-5.88c0-.82-.06-1.18-.29-1.96-.92-2.94-1.95-5.71-3.32-9.63-1.06-3.06-1.23-3.35-2.75-3.59v-.45h6.1v.45c-1.72.37-1.83.69-1.38,2.08,1.23,3.75,2.44,7.22,3.55,10.49.95-2.78,2.26-6.65,3.04-9.39.69-2.49.52-2.82-1.46-3.18v-.45h5.27v.45Z"/>
      <path class="cls-13" d="M195.75,35.11c-.51-2.57-1.43-5.02-3.67-5.02-1.89,0-2.84,2.2-2.84,4.65,0,2.9,1.17,4.37,3.18,6.08,1.92,1.71,4.47,3.84,4.47,8.24,0,4.16-2.32,7.43-5.7,7.43-.95,0-1.69-.24-2.35-.49-.66-.29-1.15-.61-1.46-.82-.23-1.02-.49-3.96-.66-5.67l.37-.2c.4,2.45,1.75,6.33,4.44,6.33,2.09,0,3.18-2.24,3.18-5.14,0-2.73-1.35-4.41-3.21-6.12-1.83-1.67-4.3-3.84-4.3-8.08,0-3.8,1.98-7.02,5.39-7.02,1.32,0,2.35.49,3.04.78.11,1.35.26,3.02.46,4.9l-.34.16Z"/>
      <path class="cls-20" d="M197.99,55.96v-.45c1.95-.29,2.18-.57,2.18-4.12v-16.98c0-3.63-.2-3.88-2.18-4.2v-.45h6.65v.45c-2.01.33-2.18.57-2.18,4.2v16.98c0,3.51.17,3.84,2.18,4.12v.45h-6.65Z"/>
      <path class="cls-5" d="M219.94,50.17c-.31,1.55-.86,4-1.32,5.51-.66.2-2.52.82-3.98.82-6.1,0-8.6-6.73-8.6-13.3,0-8.41,3.7-13.92,9.2-13.92,1.75,0,3.21.57,3.87.78.2,2.24.31,3.67.46,5.35l-.34.12c-.69-3.88-2.32-5.43-4.56-5.43-3.95,0-5.96,6.16-5.96,12.41,0,7.47,2.29,13.18,5.99,13.18,2.35,0,3.87-2.57,4.9-5.63l.34.12Z"/>
      <path class="cls-21" d="M230.54,55.96v-.45c1.6-.29,1.89-.69,1.55-2.2-.34-1.67-.92-4.45-1.61-7.47h-4.96c-.4,1.71-.95,4.33-1.35,6.45-.49,2.53-.23,2.9,1.72,3.22v.45h-5.21l.03-.45c1.52-.29,1.86-.61,2.69-4l5.3-22,.46-.24c1.61,7.22,3.18,14.53,5.04,22.28.8,3.39,1.06,3.67,2.69,3.96v.45h-6.36ZM228.11,34.66h-.09c-.77,3.35-1.55,6.81-2.26,10.12h4.5l-2.15-10.12Z"/>
      <path class="cls-6" d="M250.17,50.25c-.17,1.06-.69,4.57-.92,5.71h-11.4v-.45c2.06-.29,2.29-.57,2.29-3.96v-17.34c0-3.47-.2-3.67-2.01-4v-.45h6.33v.45c-1.83.33-2.03.53-2.03,4v17.02c0,2.2.11,3.06.57,3.47.52.37,1.23.45,2.35.45,1.72,0,2.58-.24,3.15-1.31.49-.98.92-2.2,1.32-3.75l.34.16Z"/>
      <path class="cls-2" d="M269.23,35.31c-.26-1.67-.52-2.53-.83-3.39-.43-1.06-1.03-1.35-2.98-1.35h-1.55v21.02c0,3.35.17,3.67,2.41,3.92v.45h-7.05v-.45c2.15-.24,2.32-.57,2.32-3.92v-21.02h-1.23c-2.35,0-2.92.37-3.3,1.47-.26.78-.52,1.84-.77,3.26h-.37c.11-1.84.26-4.49.31-6.53h.23c.29.78.77.98,1.43.98h9.86c.69,0,.92-.24,1.35-.98h.26c0,1.67.11,4.65.26,6.45l-.34.08Z"/>
      <path class="cls-16" d="M287.54,30.21c-1.92.33-2.15.57-2.15,4.12v17.1c0,3.51.23,3.75,2.15,4.08v.45h-6.59v-.45c1.92-.29,2.15-.57,2.15-4.08v-8.86h-7.71v8.86c0,3.55.2,3.8,2.06,4.08v.45h-6.42v-.45c1.83-.29,2.06-.53,2.06-4.08v-17.1c0-3.59-.23-3.84-2.12-4.12v-.45h6.36v.45c-1.75.29-1.95.53-1.95,4.12v7.18h7.71v-7.18c0-3.55-.23-3.8-2.01-4.12v-.45h6.45v.45Z"/>
      <path class="cls-1" d="M301.86,50.21c-.14,1.06-.69,4.53-.92,5.75h-12.01v-.45c2.26-.29,2.49-.53,2.49-4.16v-17.02c0-3.67-.23-3.84-2.09-4.12v-.45h11c.03.86.14,3.67.26,5.26l-.37.12c-.23-1.55-.52-2.65-.95-3.39-.49-.94-1.26-1.18-3.24-1.18h-1.52c-.72,0-.8.12-.8,1.35v9.96h2.38c2.38,0,2.52-.37,2.81-2.82h.34v6.77h-.34c-.31-2.61-.49-2.94-2.81-2.94h-2.38v8.28c0,2.12.14,2.98.52,3.43.43.45,1.12.53,2.58.53,2.26,0,2.84-.45,3.44-1.47.43-.82.89-2.2,1.23-3.59l.37.12Z"/>
      <path class="cls-26" d="M318.03,56.29c-.2,0-.49,0-.75-.04-2.46-.2-3.44-1.39-4.47-3.71-.8-1.75-1.83-4.45-2.61-6.49-.46-1.22-.77-1.84-1.92-1.88h-.8v7.14c0,3.63.2,3.92,2.18,4.2v.45h-6.68v-.45c2.06-.29,2.23-.57,2.23-4.2v-16.94c0-3.59-.2-3.84-2.12-4.16v-.45h6.22c2.01,0,3.24.41,4.21,1.43,1.06,1.06,1.75,2.78,1.75,5.18,0,3.43-1.49,5.51-3.5,6.86.46,1.43,1.58,4.16,2.35,5.92.92,2.12,1.52,3.39,2.21,4.57.8,1.43,1.2,1.84,1.78,2.12l-.09.45ZM308.57,43.43c1.23,0,2.06-.29,2.78-1.18.92-1.1,1.4-2.86,1.4-5.22,0-4.53-1.78-6.49-3.61-6.49-.66,0-1.23.16-1.4.37-.17.24-.26.57-.26,1.67v10.86h1.09Z"/>
      <path class="cls-18" d="M328.11,55.96v-.45c1.6-.29,1.89-.69,1.55-2.2-.34-1.67-.92-4.45-1.61-7.47h-4.96c-.4,1.71-.95,4.33-1.35,6.45-.49,2.53-.23,2.9,1.72,3.22v.45h-5.21l.03-.45c1.52-.29,1.86-.61,2.69-4l5.3-22,.46-.24c1.61,7.22,3.18,14.53,5.04,22.28.8,3.39,1.06,3.67,2.69,3.96v.45h-6.36ZM325.68,34.66h-.09c-.77,3.35-1.55,6.81-2.26,10.12h4.5l-2.15-10.12Z"/>
      <path class="cls-28" d="M341.64,29.76c1.95,0,3.38.49,4.41,1.63,1.09,1.18,1.81,3.06,1.81,5.67,0,5.1-2.64,7.63-5.24,8.16-.32.04-.63.04-.89-.04l-1.75-.73v7.1c0,3.39.2,3.67,2.26,3.96v.45h-6.65v-.45c1.89-.29,2.09-.57,2.09-3.96v-17.3c0-3.47-.11-3.67-1.92-4.04v-.45h5.87ZM339.98,43.72c.34.2.92.41,1.61.41,1.49,0,3.7-1.31,3.7-6.94,0-4.61-1.6-6.65-3.93-6.65-.49,0-.89.12-1.06.37-.26.24-.32.69-.32,1.88v10.94Z"/>
      <path class="cls-22" d="M363.53,30.21c-1.69.37-1.92.69-2.72,2.82-1.32,3.35-2.23,6.12-3.35,9.59-.34,1.02-.4,1.43-.4,2.45v6.2c0,3.67.23,3.92,2.49,4.24v.45h-7.19v-.45c2.23-.29,2.41-.57,2.41-4.24v-5.88c0-.82-.06-1.18-.29-1.96-.92-2.94-1.95-5.71-3.32-9.63-1.06-3.06-1.23-3.35-2.75-3.59v-.45h6.1v.45c-1.72.37-1.83.69-1.38,2.08,1.23,3.75,2.44,7.22,3.55,10.49.95-2.78,2.26-6.65,3.04-9.39.69-2.49.52-2.82-1.46-3.18v-.45h5.27v.45Z"/>
    </g>
  </g>
</svg>