<?xml version="1.0" encoding="UTF-8"?>
<svg xmlns="http://www.w3.org/2000/svg" xmlns:xlink="http://www.w3.org/1999/xlink" viewBox="0 0 366.36 85.28">
  <defs>
    <style>
      .cls-1 {
        fill: url(#linear-gradient-15);
      }

      .cls-2 {
        fill: url(#linear-gradient-13);
      }

      .cls-3 {
        fill: url(#linear-gradient-2);
      }

      .cls-4 {
        fill: url(#radial-gradient-9);
      }

      .cls-5 {
        fill: url(#linear-gradient-10);
      }

      .cls-6 {
        fill: url(#linear-gradient-12);
      }

      .cls-7 {
        fill: url(#linear-gradient-4);
      }

      .cls-8 {
        fill: url(#radial-gradient-5);
      }

      .cls-9 {
        fill: url(#radial-gradient);
      }

      .cls-10 {
        fill: url(#radial-gradient-3);
      }

      .cls-11 {
        fill: url(#linear-gradient-3);
      }

      .cls-12 {
        fill: url(#linear-gradient-5);
      }

      .cls-13 {
        fill: url(#linear-gradient-8);
      }

      .cls-14 {
        fill: url(#radial-gradient-8);
      }

      .cls-15 {
        fill: url(#radial-gradient-2);
      }

      .cls-16 {
        fill: url(#linear-gradient-14);
      }

      .cls-17 {
        fill: url(#radial-gradient-4);
      }

      .cls-18 {
        fill: url(#linear-gradient-17);
      }

      .cls-19 {
        fill: url(#linear-gradient-7);
      }

      .cls-20 {
        fill: url(#linear-gradient-9);
      }

      .cls-21 {
        fill: url(#linear-gradient-11);
      }

      .cls-22 {
        fill: url(#linear-gradient-19);
      }

      .cls-23 {
        fill: url(#linear-gradient-6);
      }

      .cls-24 {
        fill: url(#radial-gradient-6);
      }

      .cls-25 {
        fill: url(#radial-gradient-7);
      }

      .cls-26 {
        fill: url(#linear-gradient-16);
      }

      .cls-27 {
        fill: url(#linear-gradient);
      }

      .cls-28 {
        fill: url(#linear-gradient-18);
      }
    </style>
    <linearGradient id="linear-gradient" x1="109.95" y1="33.99" x2="109.95" y2="53.58" gradientUnits="userSpaceOnUse">
      <stop offset="0" stop-color="#393f5c"/>
      <stop offset=".1" stop-color="#354c6d"/>
      <stop offset=".39" stop-color="#2b6e9b"/>
      <stop offset=".64" stop-color="#2387bb"/>
      <stop offset=".86" stop-color="#1f96cf"/>
      <stop offset="1" stop-color="#1e9cd7"/>
    </linearGradient>
    <linearGradient id="linear-gradient-2" x1="130.93" x2="130.93" xlink:href="#linear-gradient"/>
    <linearGradient id="linear-gradient-3" x1="152.15" x2="152.15" xlink:href="#linear-gradient"/>
    <linearGradient id="linear-gradient-4" x1="168.51" y1="33.63" x2="168.51" y2="53.95" xlink:href="#linear-gradient"/>
    <linearGradient id="linear-gradient-5" x1="182" x2="182" xlink:href="#linear-gradient"/>
    <linearGradient id="linear-gradient-6" x1="197.99" y1="33.63" x2="197.99" y2="53.95" xlink:href="#linear-gradient"/>
    <linearGradient id="linear-gradient-7" x1="218.07" y1="33.42" x2="218.07" xlink:href="#linear-gradient"/>
    <linearGradient id="linear-gradient-8" x1="235.79" x2="235.79" y2="53.66" xlink:href="#linear-gradient"/>
    <linearGradient id="linear-gradient-9" x1="112.37" y1="56.85" x2="112.37" y2="76.8" xlink:href="#linear-gradient"/>
    <linearGradient id="linear-gradient-10" x1="133.89" y1="57.21" x2="133.89" y2="76.8" xlink:href="#linear-gradient"/>
    <linearGradient id="linear-gradient-11" x1="154.87" y1="56.89" x2="154.87" y2="76.77" xlink:href="#linear-gradient"/>
    <linearGradient id="linear-gradient-12" x1="174.23" y1="57.21" x2="174.23" y2="76.8" xlink:href="#linear-gradient"/>
    <linearGradient id="linear-gradient-13" x1="195.38" y1="56.75" x2="195.38" y2="76.91" xlink:href="#linear-gradient"/>
    <linearGradient id="linear-gradient-14" x1="214.76" y1="57.21" x2="214.76" y2="76.8" xlink:href="#linear-gradient"/>
    <linearGradient id="linear-gradient-15" x1="232.55" y1="57.7" x2="232.55" y2="77.3" xlink:href="#linear-gradient"/>
    <radialGradient id="radial-gradient" cx="41.98" cy="14.8" fx="41.98" fy="14.8" r="12.32" gradientUnits="userSpaceOnUse">
      <stop offset="0" stop-color="#91c83e"/>
      <stop offset=".36" stop-color="#699f39"/>
      <stop offset=".78" stop-color="#417533"/>
      <stop offset="1" stop-color="#326632"/>
    </radialGradient>
    <radialGradient id="radial-gradient-2" cx="67.99" cy="23.62" fx="67.99" fy="23.62" r="57.26" xlink:href="#radial-gradient"/>
    <radialGradient id="radial-gradient-3" cx="37" cy="36.52" fx="37" fy="36.52" r="41.41" xlink:href="#radial-gradient"/>
    <radialGradient id="radial-gradient-4" cx="383.69" cy="118.09" fx="383.69" fy="118.09" r="57.26" gradientTransform="translate(412.17 179.74) rotate(-180)" gradientUnits="userSpaceOnUse">
      <stop offset="0" stop-color="#1f9dd9"/>
      <stop offset="1" stop-color="#272971"/>
    </radialGradient>
    <radialGradient id="radial-gradient-5" cx="352.71" cy="130.99" fx="352.71" fy="130.99" r="41.41" xlink:href="#radial-gradient-4"/>
    <radialGradient id="radial-gradient-6" cx="6.39" cy="30.26" fx="6.39" fy="30.26" r="68.98" gradientTransform="matrix(1,0,0,1,0,0)" xlink:href="#radial-gradient-4"/>
    <radialGradient id="radial-gradient-7" cx="59.73" cy="2.37" fx="59.73" fy="2.37" r="59.97" gradientTransform="matrix(1,0,0,1,0,0)" xlink:href="#radial-gradient-4"/>
    <radialGradient id="radial-gradient-8" cx="56.08" cy="87.75" fx="56.08" fy="87.75" r="55.35" xlink:href="#radial-gradient"/>
    <radialGradient id="radial-gradient-9" cx="92.25" cy="35.13" fx="92.25" fy="35.13" r="51.53" xlink:href="#radial-gradient"/>
    <linearGradient id="linear-gradient-16" x1="113.9" y1="8.4" x2="113.9" y2="31.02" gradientUnits="userSpaceOnUse">
      <stop offset="0" stop-color="#086b38"/>
      <stop offset=".52" stop-color="#4f9b3c"/>
      <stop offset="1" stop-color="#8dc541"/>
    </linearGradient>
    <linearGradient id="linear-gradient-17" x1="137.6" x2="137.6" y2="31.47" xlink:href="#linear-gradient-16"/>
    <linearGradient id="linear-gradient-18" x1="162.42" x2="162.42" y2="31.37" xlink:href="#linear-gradient-16"/>
    <linearGradient id="linear-gradient-19" x1="185.84" y1="7.98" x2="185.84" xlink:href="#linear-gradient-16"/>
  </defs>
  <g id="Layer_1" data-name="Layer 1">
    <g>
      <path class="cls-27" d="M105.48,41.51v-3.89c0-.4,0-.71-.01-.95,0-.23-.02-.45-.04-.66-.03-.45-.12-.79-.26-1.01-.14-.22-.42-.38-.86-.47-.1-.03-.25-.06-.44-.06-.19,0-.38-.01-.57-.01-.29,0-.44-.08-.44-.23s.19-.23.57-.23c.35,0,.7,0,1.06.01.36,0,.71.02,1.05.03.34,0,.64.02.92.03.28,0,.51.01.7.01.54,0,1.14-.01,1.83-.04.68-.03,1.33-.04,1.93-.04.81,0,1.5.06,2.06.18.56.12,1.03.26,1.41.42.38.15.67.31.88.48.21.16.36.3.47.4.29.28.58.69.87,1.23.28.55.43,1.16.43,1.85,0,.92-.16,1.76-.48,2.53s-.76,1.43-1.33,1.98-1.24.98-2.02,1.3c-.78.31-1.62.47-2.54.47h-.28c-.1,0-.19,0-.26-.03-.07-.02-.14-.04-.21-.06-.07-.03-.1-.08-.1-.17,0-.1.05-.18.16-.22.1-.04.29-.06.57-.06.36,0,.75-.1,1.15-.3.41-.2.78-.48,1.13-.86.35-.37.63-.82.86-1.35.22-.53.34-1.12.34-1.77,0-.21-.01-.47-.04-.78s-.09-.64-.18-1c-.09-.35-.25-.71-.45-1.07-.21-.36-.49-.71-.86-1.04-.47-.43-.94-.71-1.43-.83-.48-.12-.87-.18-1.17-.18-.19,0-.38,0-.56.03-.18.02-.33.04-.45.08-.14.05-.21.22-.21.49v10.37c0,1.19,0,2.28.01,3.25,0,.98.05,1.74.12,2.29.03.36.11.67.23.93.12.26.38.41.78.47.19.03.41.06.66.08.25.02.47.03.66.03.28,0,.41.07.41.21,0,.17-.16.26-.49.26-.86,0-1.66-.01-2.4-.04-.73-.03-1.27-.04-1.62-.04-.16,0-.36,0-.62.01-.26,0-.54.02-.84.03-.3,0-.61.02-.93.03-.32,0-.61.01-.87.01-.35,0-.52-.09-.52-.26,0-.14.14-.21.41-.21.19,0,.36,0,.52-.03s.29-.04.41-.08c.26-.05.44-.21.53-.47.09-.26.17-.58.22-.96.07-.55.11-1.31.12-2.28,0-.97.01-2.05.01-3.24v-4.56Z"/>
      <path class="cls-3" d="M135.75,42.23c.1,0,.16-.06.16-.18v-4.43c0-.4,0-.71-.01-.95,0-.23-.02-.45-.04-.66-.04-.45-.12-.79-.26-1.01-.14-.22-.42-.38-.86-.47-.1-.03-.25-.06-.44-.06s-.38-.01-.57-.01c-.29,0-.44-.08-.44-.23s.18-.23.54-.23.7,0,1.08.01c.37,0,.73.02,1.06.03.34,0,.64.02.92.03.28,0,.5.01.67.01.16,0,.37,0,.63-.01.27,0,.55-.02.86-.03.3,0,.61-.02.92-.03.31,0,.6-.01.86-.01.36,0,.54.08.54.23s-.16.23-.47.23c-.19,0-.44.03-.75.08-.35.07-.58.22-.71.45-.13.23-.21.57-.25,1.02-.02.21-.03.43-.04.66s-.01.55-.01.95v8.45c0,1.19,0,2.28.01,3.25,0,.98.05,1.74.12,2.29.03.36.11.67.23.93.12.26.38.41.78.47.19.03.41.06.66.08.25.02.47.03.66.03.28,0,.41.07.41.21,0,.17-.17.26-.52.26-.85,0-1.64-.01-2.38-.04-.74-.03-1.3-.04-1.66-.04-.16,0-.36,0-.62.01-.26,0-.54.02-.84.03-.3,0-.61.02-.92.03-.31,0-.6.01-.86.01-.36,0-.54-.09-.54-.26,0-.14.14-.21.41-.21.19,0,.36,0,.52-.03s.29-.04.41-.08c.26-.05.44-.21.53-.47.09-.26.17-.58.22-.96.07-.55.11-1.31.12-2.28,0-.97.01-2.05.01-3.24v-2.28c0-.1-.05-.16-.16-.16h-9.9c-.1,0-.16.05-.16.16v2.28c0,1.19,0,2.28.01,3.25,0,.98.05,1.74.12,2.29.03.36.11.67.23.93.12.26.38.41.78.47.19.03.41.06.66.08s.47.03.66.03c.28,0,.41.07.41.21,0,.17-.17.26-.52.26-.85,0-1.64-.01-2.38-.04-.74-.03-1.3-.04-1.66-.04-.16,0-.36,0-.62.01-.26,0-.54.02-.84.03-.3,0-.61.02-.93.03-.32,0-.61.01-.87.01-.35,0-.52-.09-.52-.26,0-.14.14-.21.41-.21.19,0,.36,0,.52-.03s.29-.04.41-.08c.26-.05.44-.21.53-.47.09-.26.17-.58.22-.96.07-.55.11-1.31.12-2.28,0-.97.01-2.05.01-3.24v-8.45c0-.4,0-.71-.01-.95,0-.23-.02-.45-.04-.66-.03-.45-.12-.79-.26-1.01-.14-.22-.42-.38-.86-.47-.1-.03-.25-.06-.44-.06-.19,0-.38-.01-.57-.01-.29,0-.44-.08-.44-.23s.18-.23.54-.23.7,0,1.08.01c.37,0,.73.02,1.06.03.34,0,.64.02.92.03.28,0,.5.01.67.01.16,0,.37,0,.63-.01.27,0,.55-.02.86-.03.3,0,.61-.02.92-.03.31,0,.6-.01.86-.01.36,0,.54.08.54.23s-.16.23-.47.23c-.19,0-.44.03-.75.08-.35.07-.58.22-.71.45-.13.23-.21.57-.25,1.02-.02.21-.03.43-.04.66,0,.23-.01.55-.01.95v4.43c0,.12.05.18.16.18h9.9Z"/>
      <path class="cls-11" d="M150.55,46.87c0-.35-.02-.65-.05-.91-.03-.26-.08-.49-.13-.7-.05-.21-.11-.4-.18-.57-.07-.17-.15-.35-.23-.54-.03-.07-.15-.27-.34-.61-.19-.34-.43-.74-.73-1.22-.29-.47-.61-.99-.95-1.55-.34-.56-.67-1.11-1-1.63-.33-.53-.63-1.01-.91-1.45-.28-.44-.49-.77-.65-1-.33-.48-.65-.88-.96-1.21-.31-.32-.59-.55-.83-.69-.17-.09-.36-.16-.56-.23-.2-.07-.38-.1-.53-.1-.1,0-.19-.02-.27-.05-.08-.03-.12-.09-.12-.18,0-.16.16-.23.49-.23.12,0,.32,0,.6.01.28,0,.57.02.89.03.32,0,.64.02.97.03.33,0,.6.01.8.01.28,0,.66-.01,1.15-.04.49-.03,1.03-.04,1.62-.04.26,0,.39.08.39.23,0,.09-.05.14-.14.17-.1.03-.24.07-.43.12-.12.03-.21.09-.27.18-.06.09-.09.18-.09.28s.03.23.09.38c.06.15.13.32.22.51.05.14.19.41.41.8.22.4.49.86.79,1.4.3.54.63,1.1.97,1.7.35.6.67,1.16.98,1.69s.58.99.8,1.39c.22.4.37.66.44.78.03-.1.15-.33.35-.69.2-.35.43-.77.7-1.26s.55-1,.86-1.56c.3-.55.59-1.08.87-1.57.28-.49.51-.92.71-1.3.2-.37.33-.63.4-.76.24-.54.36-.98.36-1.35,0-.14-.03-.27-.1-.39-.07-.12-.22-.21-.44-.26-.12-.03-.23-.06-.32-.09-.1-.03-.14-.08-.14-.17,0-.16.15-.23.44-.23.43,0,.85.01,1.26.04.41.03.8.04,1.18.04.14,0,.34,0,.6-.01.26,0,.53-.02.82-.03.29,0,.55-.02.8-.03.25,0,.44-.01.56-.01.31,0,.47.07.47.21,0,.17-.16.26-.49.26-.14,0-.32.03-.53.08-.22.05-.42.13-.61.23-.28.14-.51.3-.69.48s-.42.45-.71.79c-.14.17-.35.47-.62.89-.28.42-.59.91-.93,1.45-.35.54-.7,1.12-1.06,1.74-.36.61-.7,1.2-1.02,1.75-.32.55-.6,1.05-.84,1.48-.24.43-.4.74-.47.93-.19.47-.3.91-.34,1.32-.03.42-.05.84-.05,1.27v2.12c0,.21,0,.55.01,1.04,0,.48.03,1,.06,1.55.03.38.12.7.26.96.14.26.41.41.8.47.19.03.41.06.65.08.24.02.46.03.65.03.28,0,.41.07.41.21,0,.17-.18.26-.54.26-.81,0-1.59-.01-2.33-.04-.74-.03-1.29-.04-1.63-.04-.16,0-.37,0-.63.01s-.56.02-.87.03c-.31,0-.62.02-.92.03-.3,0-.57.01-.82.01-.38,0-.57-.09-.57-.26,0-.14.14-.21.41-.21.19,0,.36,0,.51-.03.15-.02.28-.04.4-.08.26-.05.45-.21.57-.47.12-.26.2-.58.23-.96.03-.55.06-1.07.06-1.55s.01-.83.01-1.04v-2.12Z"/>
      <path class="cls-7" d="M165.32,53.79c-.61-.1-1.18-.28-1.74-.52-.21-.09-.34-.18-.4-.29-.06-.1-.09-.3-.09-.6,0-.36,0-.72.01-1.08,0-.35.02-.69.04-1,.02-.31.03-.58.05-.82s.03-.4.03-.51c.02-.19.05-.35.09-.48s.12-.19.22-.19c.12,0,.19.05.22.14s.04.19.04.3c0,.17.02.38.06.62.04.24.1.48.17.7.29.97.78,1.65,1.46,2.03.68.39,1.43.58,2.24.58.59,0,1.1-.09,1.53-.27.43-.18.79-.41,1.08-.7.28-.29.5-.6.65-.95.15-.35.22-.69.22-1.04,0-.31-.03-.63-.09-.95-.06-.32-.18-.64-.36-.97s-.44-.68-.78-1.05c-.34-.37-.77-.76-1.31-1.18l-1.19-.93c-.71-.55-1.31-1.09-1.8-1.61-.49-.52-.89-1.02-1.19-1.52s-.52-.99-.65-1.49c-.13-.5-.19-1.01-.19-1.53,0-.71.14-1.36.43-1.97.29-.6.69-1.12,1.22-1.55.53-.43,1.16-.77,1.89-1.01.73-.24,1.55-.36,2.45-.36.85,0,1.55.05,2.1.16.55.1,1,.2,1.35.28.24.05.36.16.36.31,0,.17-.02.48-.05.92-.03.44-.05,1.17-.05,2.19,0,.29-.02.5-.06.61-.04.11-.12.17-.22.17-.17,0-.26-.16-.26-.47,0-.12-.04-.35-.13-.69-.09-.34-.27-.68-.54-1.02-.1-.12-.23-.26-.38-.4-.15-.15-.33-.28-.56-.41s-.49-.24-.8-.32c-.31-.09-.67-.13-1.09-.13-.97,0-1.72.25-2.27.75-.54.5-.82,1.14-.82,1.92,0,.29.04.58.13.86.09.28.23.56.44.84.21.28.49.59.84.92.35.33.8.7,1.33,1.11l.73.54c.78.59,1.44,1.15,1.98,1.69.54.54.98,1.06,1.32,1.58.34.52.58,1.05.73,1.59s.22,1.13.22,1.75c0,.38-.04.77-.12,1.17s-.21.8-.4,1.19c-.19.4-.44.78-.75,1.14s-.7.7-1.17,1.01c-.66.41-1.33.7-2.03.84-.7.15-1.4.22-2.09.22-.76,0-1.44-.05-2.05-.16Z"/>
      <path class="cls-12" d="M180.09,41.51v-3.89c0-.4,0-.71-.01-.95,0-.23-.02-.45-.04-.66-.05-.85-.35-1.33-.88-1.45-.14-.03-.29-.06-.45-.08-.16-.02-.32-.03-.48-.03-.28,0-.41-.09-.41-.26,0-.14.21-.21.62-.21.24,0,.52,0,.83.01l.93.03c.31,0,.61.02.89.03.29,0,.52.01.71.01.16,0,.36,0,.62-.01.26,0,.54-.02.83-.03.29,0,.59-.02.89-.03.3,0,.57-.01.82-.01.36,0,.54.07.54.21,0,.17-.14.26-.41.26-.14,0-.26,0-.38.01-.11,0-.25.03-.4.06-.35.07-.58.22-.71.45-.13.23-.21.57-.25,1.02-.02.21-.03.43-.04.66,0,.23-.01.55-.01.95v8.45c0,1.26,0,2.38.01,3.37,0,.98.04,1.75.09,2.31.03.35.12.63.25.86.13.22.39.36.79.41.19.03.41.06.66.08.25.02.47.03.66.03.28,0,.41.07.41.21,0,.17-.16.26-.49.26-.86,0-1.67-.01-2.41-.04-.74-.03-1.29-.04-1.63-.04-.16,0-.36,0-.62.01-.26,0-.54.02-.84.03-.3,0-.61.02-.93.03-.32,0-.61.01-.87.01-.35,0-.52-.09-.52-.26,0-.14.14-.21.41-.21.19,0,.36,0,.52-.03s.29-.04.41-.08c.26-.05.44-.19.54-.4s.17-.51.21-.89c.07-.55.11-1.32.12-2.29,0-.98.01-2.09.01-3.36v-4.56Z"/>
      <path class="cls-23" d="M196.2,53.31c-1.48-.42-2.81-1.15-4-2.19-.64-.55-1.17-1.14-1.58-1.77s-.74-1.28-.98-1.94c-.24-.66-.41-1.33-.51-2-.1-.67-.14-1.31-.14-1.93,0-.43.04-.94.13-1.53s.24-1.2.45-1.83c.22-.63.52-1.27.92-1.92.4-.65.91-1.26,1.53-1.83.93-.86,2.05-1.54,3.34-2.02,1.3-.48,2.91-.73,4.85-.73.81,0,1.49.02,2.04.07.54.04,1.12.11,1.72.19.5.07.96.15,1.37.25.42.1.82.16,1.22.2.26.02.39.12.39.31,0,.1-.01.25-.04.45-.03.2-.06.52-.09.97-.02.21-.03.45-.03.73s0,.55-.01.8c0,.26-.01.51-.01.75,0,.22,0,.4-.03.52-.02.19-.04.34-.08.44-.03.1-.11.16-.23.16-.17,0-.26-.19-.26-.57-.02-.4-.11-.81-.27-1.23-.16-.42-.41-.81-.74-1.15-.43-.45-1.12-.83-2.06-1.14-.94-.31-2.01-.47-3.2-.47s-2.09.14-2.86.42-1.44.67-2.01,1.19c-.95.88-1.59,1.9-1.91,3.07-.32,1.17-.48,2.38-.48,3.64,0,1.54.26,2.89.79,4.04.53,1.16,1.19,2.12,2,2.89.8.77,1.69,1.34,2.64,1.72s1.87.57,2.73.57c1.16,0,2.11-.09,2.85-.27.74-.18,1.37-.57,1.89-1.18.22-.24.41-.53.57-.86.16-.33.26-.61.31-.86.03-.21.07-.34.12-.41.04-.07.12-.1.22-.1.09,0,.15.04.18.12s.05.17.05.27c0,.09-.02.27-.05.56-.03.28-.08.6-.13.96s-.11.71-.18,1.06-.14.64-.21.87c-.07.22-.14.38-.22.48-.08.1-.23.19-.45.27-.26.1-.57.19-.93.27-.36.08-.75.14-1.17.18-.41.04-.84.08-1.28.1-.44.03-.87.04-1.28.04-1.78,0-3.41-.21-4.89-.63Z"/>
      <path class="cls-19" d="M214.35,46.82c-.1,0-.18.07-.23.21l-1.4,3.71c-.14.33-.24.63-.3.92-.06.28-.09.51-.09.66,0,.24.07.44.22.58.15.15.42.22.82.22h.39c.16,0,.26.01.31.04.05.03.08.08.08.17,0,.17-.15.26-.44.26-.41,0-.88-.01-1.39-.04-.51-.03-.96-.04-1.36-.04-.07,0-.2,0-.4.01-.2,0-.44.02-.73.03-.28,0-.6.02-.93.03-.34,0-.67.01-1,.01s-.49-.09-.49-.26c0-.14.1-.21.31-.21.12,0,.26,0,.42-.01.16,0,.28-.02.39-.04.6-.09,1.06-.33,1.36-.74.3-.41.58-.94.84-1.59l6.51-16.27c.16-.38.28-.65.38-.8.09-.16.21-.23.35-.23.19,0,.41.28.65.83.1.24.3.71.58,1.4.29.69.62,1.52,1,2.49.38.97.8,2.01,1.24,3.14s.89,2.24,1.34,3.34c.44,1.11.86,2.15,1.26,3.12.4.98.73,1.79,1.01,2.45.24.59.47,1.06.69,1.41s.42.63.61.83c.19.2.37.34.53.41.16.08.31.13.45.17.19.03.38.06.57.08.19.02.36.03.52.03.22,0,.34.07.34.21,0,.1-.08.17-.23.21-.16.03-.48.05-.96.05h-2.02c-.88,0-1.84-.02-2.88-.05-.24-.02-.43-.03-.57-.05-.14-.02-.21-.07-.21-.16,0-.14.12-.22.36-.23.09-.03.16-.1.23-.21.07-.1.07-.23,0-.39l-2.07-5.5c-.05-.12-.14-.18-.26-.18h-5.78ZM219.64,45.52c.12,0,.16-.05.13-.16l-2.33-6.4c-.02-.05-.03-.1-.05-.16-.02-.05-.04-.08-.08-.08s-.06.03-.09.08c-.03.05-.05.1-.06.16l-2.38,6.38c-.03.12,0,.18.1.18h4.77Z"/>
      <path class="cls-13" d="M234.7,46.07c0,1.68.02,2.96.06,3.86s.2,1.47.48,1.71c.1.1.23.19.39.26.16.07.35.13.58.17.23.04.53.08.88.1.35.03.78.04,1.28.04.69,0,1.29-.03,1.79-.1.5-.07.92-.28,1.24-.62.16-.17.3-.41.43-.73.13-.31.21-.59.25-.83.02-.12.04-.22.08-.29.03-.07.1-.1.21-.1.14,0,.21.15.21.44,0,.07,0,.23-.03.48-.02.25-.05.53-.09.84s-.09.62-.13.92c-.04.3-.09.55-.14.74-.03.14-.08.26-.13.35s-.13.17-.25.22c-.11.05-.27.09-.47.1-.2.02-.46.03-.79.03-.93,0-1.75,0-2.45-.03-.7-.02-1.34-.03-1.93-.05-.59-.03-1.13-.06-1.62-.07-.49,0-1.01-.01-1.54-.01h-.62c-.26,0-.54,0-.86.03-.29,0-.6,0-.92.03s-.61.03-.87.03c-.35,0-.52-.09-.52-.26,0-.14.14-.21.41-.21.19,0,.36,0,.52-.03.16-.02.29-.04.41-.08.26-.05.44-.21.53-.47.09-.26.17-.58.22-.96.07-.55.11-1.31.12-2.28,0-.97.01-2.05.01-3.24v-8.45c0-.4,0-.71-.01-.95s-.02-.45-.04-.66c-.03-.45-.12-.79-.26-1.01-.14-.22-.42-.38-.86-.47-.21-.05-.49-.08-.86-.08-.29,0-.44-.08-.44-.23s.19-.23.57-.23c.31,0,.63,0,.97.01.34,0,.67.02,1,.03.33,0,.63.02.91.03.28,0,.5.01.67.01.16,0,.38,0,.67-.01.29,0,.61-.02.95-.03.34,0,.67-.02,1.01-.03.34,0,.63-.01.89-.01.36,0,.54.08.54.23s-.16.23-.47.23c-.14,0-.3,0-.49.01-.19,0-.36.03-.52.06-.35.07-.58.22-.71.45-.13.23-.21.57-.25,1.02-.02.21-.03.43-.04.66s-.01.55-.01.95v8.45Z"/>
      <path class="cls-20" d="M110.94,58.66l-3.86.1c-.76.03-1.32.09-1.68.18s-.64.28-.83.57c-.14.19-.24.36-.3.52-.06.16-.11.28-.14.39-.05.21-.15.31-.29.31-.16,0-.23-.14-.23-.42,0-.1.03-.31.08-.61s.11-.62.17-.96c.06-.34.12-.64.18-.92.06-.28.1-.44.12-.49.07-.33.17-.49.31-.49.1,0,.23.04.39.13.16.09.4.15.73.18.38.03.8.07,1.26.09.46.03.9.04,1.33.04h10.26c.41,0,.77-.01,1.06-.04.29-.03.54-.06.73-.09s.34-.06.45-.09c.11-.03.2-.04.25-.04.14,0,.21.18.21.54,0,.14,0,.34-.01.61,0,.27-.02.55-.03.84,0,.29-.02.58-.03.87s-.01.51-.01.69c-.03.28-.11.41-.23.41-.17,0-.27-.17-.29-.52l-.03-.28c-.02-.17-.08-.34-.18-.51-.1-.16-.27-.31-.51-.45-.23-.14-.54-.25-.93-.34-.39-.09-.87-.14-1.44-.16l-3.27-.08v10.63c0,1.19,0,2.28.01,3.25,0,.98.05,1.74.12,2.29.03.36.11.67.23.93.12.26.38.41.78.47.19.03.41.06.66.08.25.02.47.03.66.03.28,0,.41.07.41.21,0,.17-.16.26-.49.26-.86,0-1.67-.01-2.41-.04-.74-.03-1.3-.04-1.66-.04-.16,0-.36,0-.62.01s-.54.02-.84.03c-.3,0-.61.02-.93.03-.32,0-.61.01-.87.01-.35,0-.52-.09-.52-.26,0-.14.14-.21.41-.21.19,0,.36,0,.52-.03.16-.02.29-.04.41-.08.26-.05.44-.21.55-.47.1-.26.17-.58.21-.96.07-.55.11-1.31.12-2.28,0-.97.01-2.05.01-3.24v-10.63Z"/>
      <path class="cls-5" d="M138.71,65.45c.1,0,.16-.06.16-.18v-4.43c0-.4,0-.71-.01-.95s-.02-.45-.04-.66c-.03-.45-.12-.79-.26-1.01s-.42-.38-.86-.47c-.1-.03-.25-.06-.44-.06-.19,0-.38-.01-.57-.01-.29,0-.44-.08-.44-.23s.18-.23.54-.23.7,0,1.08.01c.37,0,.73.02,1.06.03.34,0,.64.02.92.03s.5.01.67.01c.16,0,.37,0,.63-.01s.55-.02.86-.03c.3,0,.61-.02.92-.03.31,0,.6-.01.86-.01.36,0,.54.08.54.23s-.16.23-.47.23c-.19,0-.44.03-.75.08-.35.07-.58.22-.71.45-.13.23-.21.57-.25,1.02-.02.21-.03.43-.04.66,0,.23-.01.55-.01.95v8.45c0,1.19,0,2.28.01,3.25,0,.98.05,1.74.12,2.29.03.36.11.67.23.93.12.26.38.41.78.47.19.03.41.06.66.08.25.02.47.03.66.03.28,0,.41.07.41.21,0,.17-.17.26-.52.26-.85,0-1.64-.01-2.38-.04-.74-.03-1.3-.04-1.66-.04-.16,0-.36,0-.62.01s-.54.02-.84.03c-.3,0-.61.02-.92.03-.31,0-.6.01-.86.01-.36,0-.54-.09-.54-.26,0-.14.14-.21.41-.21.19,0,.36,0,.52-.03.16-.02.29-.04.41-.08.26-.05.44-.21.53-.47.09-.26.17-.58.22-.96.07-.55.11-1.31.12-2.28,0-.97.01-2.05.01-3.24v-2.28c0-.1-.05-.16-.16-.16h-9.9c-.1,0-.16.05-.16.16v2.28c0,1.19,0,2.28.01,3.25,0,.98.05,1.74.12,2.29.03.36.11.67.23.93.12.26.38.41.78.47.19.03.41.06.66.08.25.02.47.03.66.03.28,0,.41.07.41.21,0,.17-.17.26-.52.26-.85,0-1.64-.01-2.38-.04-.74-.03-1.3-.04-1.66-.04-.16,0-.36,0-.62.01s-.54.02-.84.03c-.3,0-.61.02-.93.03-.32,0-.61.01-.87.01-.34,0-.52-.09-.52-.26,0-.14.14-.21.41-.21.19,0,.36,0,.52-.03.16-.02.29-.04.41-.08.26-.05.44-.21.53-.47.09-.26.17-.58.22-.96.07-.55.11-1.31.12-2.28,0-.97.01-2.05.01-3.24v-8.45c0-.4,0-.71-.01-.95s-.02-.45-.04-.66c-.03-.45-.12-.79-.26-1.01-.14-.22-.42-.38-.86-.47-.1-.03-.25-.06-.44-.06-.19,0-.38-.01-.57-.01-.29,0-.44-.08-.44-.23s.18-.23.54-.23.7,0,1.08.01c.37,0,.73.02,1.06.03.34,0,.64.02.92.03s.5.01.67.01c.16,0,.37,0,.63-.01s.55-.02.86-.03c.3,0,.61-.02.92-.03.31,0,.6-.01.86-.01.36,0,.54.08.54.23s-.16.23-.47.23c-.19,0-.44.03-.75.08-.35.07-.58.22-.71.45-.13.23-.21.57-.25,1.02-.02.21-.03.43-.04.66,0,.23-.01.55-.01.95v4.43c0,.12.05.18.16.18h9.9Z"/>
      <path class="cls-21" d="M150.94,64.61v-3.89c0-.4,0-.71-.01-.95s-.02-.45-.04-.66c-.03-.45-.12-.79-.26-1.01-.14-.22-.42-.38-.86-.47-.1-.03-.25-.06-.44-.06-.19,0-.38-.01-.57-.01-.29,0-.44-.08-.44-.23s.19-.23.57-.23c.35,0,.7,0,1.06.01.36,0,.71.01,1.04.01.34.02.66.03.93.04s.51.01.7.01h4.77c.43,0,.8,0,1.11-.01s.51-.01.6-.01c.24-.03.46-.06.66-.08.2-.02.35-.04.45-.08.07-.02.14-.04.21-.06.07-.03.14-.04.21-.04.1,0,.16.08.16.23,0,.09-.03.24-.08.45-.05.22-.1.63-.13,1.23,0,.07,0,.18-.01.34,0,.16-.02.32-.04.51-.02.18-.03.35-.04.52,0,.16-.02.28-.04.35-.02.07-.04.13-.08.2-.03.06-.09.09-.18.09-.16,0-.23-.12-.23-.36,0-.09,0-.22-.03-.42-.02-.19-.06-.36-.13-.52-.09-.22-.24-.41-.45-.57-.22-.16-.64-.28-1.28-.36-.1-.02-.33-.03-.69-.04-.35,0-.73-.02-1.13-.03-.4,0-.78-.02-1.14-.03-.36,0-.6-.01-.73-.01s-.18.09-.18.26v6.56c0,.19.06.29.18.29h2.05c.45,0,.87,0,1.27-.01.4,0,.67-.02.83-.04.31-.03.57-.07.76-.12s.36-.13.48-.27c.19-.22.33-.34.41-.34.12,0,.18.07.18.21,0,.09-.02.26-.06.52-.04.26-.09.72-.14,1.37,0,.14,0,.29-.03.47-.02.17-.03.35-.04.52s-.02.33-.03.47c0,.14-.01.23-.01.29,0,.1,0,.21-.03.32-.02.11-.09.17-.21.17-.16,0-.23-.08-.23-.23-.02-.14-.03-.28-.04-.44,0-.16-.03-.32-.06-.49-.07-.26-.21-.48-.42-.66-.21-.18-.55-.3-1.04-.35-.12-.02-.35-.03-.7-.04-.35,0-.71-.02-1.1-.03-.39,0-.76-.01-1.13-.01h-.75c-.1,0-.16.09-.16.26v6.06c.02.45.06.82.14,1.1.08.29.22.51.44.66.22.16.53.26.93.32.41.06.94.09,1.59.09.35,0,.75-.01,1.22-.04.47-.03.87-.12,1.22-.27.35-.16.61-.38.78-.67.17-.29.3-.71.39-1.24.05-.26.15-.39.29-.39.1,0,.16.04.18.13.02.09.03.2.03.34,0,.16-.01.37-.04.63-.03.27-.06.54-.09.83s-.07.56-.1.83-.07.46-.1.58c-.05.17-.1.3-.16.39s-.13.15-.23.19c-.1.04-.24.07-.4.08s-.37.01-.61.01c-.98,0-1.84,0-2.57-.03-.73-.02-1.37-.03-1.92-.05-.55-.03-1.04-.06-1.46-.07-.42,0-.83-.01-1.23-.01h-.62c-.26,0-.54,0-.86.03-.29,0-.6,0-.92.03-.32.02-.61.03-.87.03-.34,0-.52-.09-.52-.26,0-.14.14-.21.41-.21.19,0,.36,0,.52-.03.16-.02.29-.04.41-.08.26-.05.44-.21.53-.47.09-.26.17-.58.22-.96.07-.55.11-1.31.12-2.28,0-.97.01-2.05.01-3.24v-4.56Z"/>
      <path class="cls-6" d="M166.62,64.73v-3.89c0-.4,0-.71-.01-.95s-.02-.45-.04-.66c-.03-.45-.12-.79-.26-1.01-.14-.22-.42-.38-.86-.47-.1-.03-.25-.06-.44-.06-.19,0-.38-.01-.57-.01-.29,0-.44-.08-.44-.23s.19-.23.57-.23c.35,0,.7,0,1.06.01.36,0,.7.02,1.02.03.32,0,.61.02.87.03.26,0,.46.01.6.01.22,0,.5,0,.83-.01s.67-.02,1.02-.03c.35,0,.69-.02,1.01-.03.32,0,.58-.01.79-.01.83,0,1.65.07,2.48.2.82.13,1.59.44,2.29.92.17.12.36.29.57.52.21.22.4.49.58.79.18.3.33.64.44,1.02.11.38.17.79.17,1.22,0,.48-.06.96-.17,1.43-.11.47-.3.93-.56,1.4-.26.47-.61.95-1.05,1.44s-.99,1.01-1.65,1.54c1.16,1.47,2.19,2.77,3.1,3.9s1.75,2.1,2.53,2.91c.36.38.7.68,1.01.91s.59.4.84.52c.25.12.46.2.63.25.17.04.31.07.42.09.28.05.52.08.73.08s.31.07.31.21c0,.17-.16.26-.49.26h-2.46c-.73,0-1.29-.03-1.68-.1-.4-.07-.76-.2-1.09-.39-.55-.29-1.1-.75-1.65-1.37s-1.18-1.43-1.9-2.44c-.26-.36-.52-.73-.79-1.11-.27-.38-.52-.73-.75-1.06s-.44-.62-.62-.87c-.18-.25-.32-.43-.4-.53-.1-.12-.26-.18-.47-.18l-2.25-.05c-.14,0-.21.07-.21.21v.36c0,1.21,0,2.3.01,3.27,0,.97.05,1.73.12,2.28.03.38.11.7.23.96.12.26.38.41.78.47.19.03.41.06.66.08.25.02.45.03.61.03.21,0,.31.07.31.21,0,.17-.17.26-.52.26-.38,0-.77,0-1.18-.01-.41,0-.79-.02-1.14-.03-.35,0-.67-.02-.93-.03s-.45-.01-.56-.01c-.12,0-.31,0-.56.01-.25,0-.52.02-.82.03-.29,0-.6.02-.92.03-.32,0-.61.01-.87.01-.34,0-.52-.09-.52-.26,0-.14.14-.21.41-.21.19,0,.36,0,.52-.03.16-.02.29-.04.41-.08.26-.05.44-.21.53-.47.09-.26.17-.58.22-.96.07-.55.11-1.31.12-2.28,0-.97.01-2.05.01-3.24v-4.56ZM169.68,66.77c0,.24.08.4.23.47.28.09.59.15.95.2.35.04.69.06,1.02.06.26,0,.48,0,.66-.03.18-.02.34-.04.48-.08.14-.03.26-.08.36-.13.1-.05.22-.12.34-.21.4-.29.75-.75,1.06-1.36.31-.61.47-1.46.47-2.53,0-.92-.13-1.68-.4-2.29s-.6-1.1-1.01-1.46-.84-.62-1.3-.76c-.46-.15-.88-.22-1.26-.22-.69,0-1.15.03-1.37.1-.16.05-.23.17-.23.36v7.88Z"/>
      <path class="cls-2" d="M191.66,70.14c-.1,0-.18.07-.23.21l-1.4,3.71c-.14.33-.24.63-.3.92-.06.28-.09.51-.09.66,0,.24.07.44.22.58.15.15.42.22.82.22h.39c.16,0,.26.01.31.04.05.03.08.08.08.17,0,.17-.15.26-.44.26-.41,0-.88-.01-1.39-.04-.51-.03-.96-.04-1.36-.04-.07,0-.2,0-.4.01s-.44.02-.73.03c-.28,0-.6.02-.93.03-.34,0-.67.01-1,.01s-.49-.09-.49-.26c0-.14.1-.21.31-.21.12,0,.26,0,.41-.01.16,0,.29-.02.39-.04.6-.09,1.06-.33,1.36-.74s.58-.94.84-1.59l6.5-16.27c.16-.38.28-.65.38-.8.09-.16.21-.23.35-.23.19,0,.4.28.65.83.1.24.3.71.58,1.4.28.69.62,1.52,1,2.49.38.97.8,2.01,1.24,3.14s.89,2.24,1.33,3.34c.44,1.11.86,2.15,1.26,3.12s.74,1.79,1.01,2.45c.24.59.47,1.06.69,1.41s.42.63.61.83c.19.2.37.34.53.41.16.08.32.13.45.17.19.03.38.06.57.08s.36.03.52.03c.22,0,.34.07.34.21,0,.1-.08.17-.23.21-.16.03-.48.05-.96.05h-2.02c-.88,0-1.84-.02-2.88-.05-.24-.02-.43-.03-.57-.05-.14-.02-.21-.07-.21-.16,0-.14.12-.22.36-.23.09-.03.16-.1.23-.21.07-.1.07-.23,0-.39l-2.07-5.5c-.05-.12-.14-.18-.26-.18h-5.78ZM196.95,68.85c.12,0,.16-.05.13-.16l-2.33-6.4c-.02-.05-.03-.1-.05-.16-.02-.05-.04-.08-.08-.08s-.06.03-.09.08c-.03.05-.05.1-.06.16l-2.38,6.38c-.03.12,0,.18.1.18h4.77Z"/>
      <path class="cls-16" d="M210.29,64.73v-3.89c0-.4,0-.71-.01-.95s-.02-.45-.04-.66c-.03-.45-.12-.79-.26-1.01-.14-.22-.42-.38-.86-.47-.1-.03-.25-.06-.44-.06-.19,0-.38-.01-.57-.01-.29,0-.44-.08-.44-.23s.19-.23.57-.23c.35,0,.7,0,1.06.01.36,0,.71.02,1.05.03.34,0,.64.02.92.03s.51.01.7.01c.54,0,1.14-.01,1.83-.04.68-.03,1.33-.04,1.93-.04.81,0,1.5.06,2.06.18.56.12,1.03.26,1.41.42.38.15.67.31.88.48.21.16.36.3.47.4.29.28.58.69.87,1.23.28.55.43,1.16.43,1.85,0,.92-.16,1.76-.48,2.53-.32.77-.76,1.43-1.34,1.98s-1.24.98-2.02,1.3-1.62.47-2.54.47h-.29c-.1,0-.19,0-.26-.03-.07-.02-.14-.04-.21-.06-.07-.03-.1-.08-.1-.17,0-.1.05-.18.16-.22.1-.04.29-.06.57-.06.36,0,.75-.1,1.15-.3.41-.2.78-.48,1.13-.86.35-.37.63-.82.86-1.35.22-.53.34-1.12.34-1.77,0-.21-.01-.47-.04-.78-.03-.31-.09-.64-.18-1-.09-.35-.25-.71-.45-1.07-.21-.36-.49-.71-.86-1.04-.47-.43-.94-.71-1.43-.83-.48-.12-.87-.18-1.17-.18-.19,0-.38,0-.56.03-.18.02-.33.04-.45.08-.14.05-.21.22-.21.49v10.37c0,1.19,0,2.28.01,3.25,0,.98.05,1.74.12,2.29.03.36.11.67.23.93.12.26.38.41.78.47.19.03.41.06.66.08.25.02.47.03.66.03.28,0,.41.07.41.21,0,.17-.16.26-.49.26-.86,0-1.66-.01-2.4-.04-.74-.03-1.27-.04-1.62-.04-.16,0-.36,0-.62.01s-.54.02-.84.03c-.3,0-.61.02-.93.03-.32,0-.61.01-.87.01-.34,0-.52-.09-.52-.26,0-.14.14-.21.41-.21.19,0,.36,0,.52-.03.16-.02.29-.04.41-.08.26-.05.44-.21.53-.47.09-.26.17-.58.22-.96.07-.55.11-1.31.12-2.28,0-.97.01-2.05.01-3.24v-4.56Z"/>
      <path class="cls-1" d="M230.94,70.58c0-.35-.02-.65-.05-.91-.03-.26-.08-.49-.13-.7-.05-.21-.11-.4-.18-.57-.07-.17-.15-.35-.23-.54-.03-.07-.15-.27-.34-.61-.19-.34-.43-.74-.73-1.22-.29-.47-.61-.99-.95-1.55-.34-.56-.67-1.11-1-1.63-.33-.53-.63-1.01-.91-1.45-.28-.44-.49-.77-.65-1-.33-.48-.65-.88-.96-1.21-.31-.32-.59-.55-.83-.69-.17-.09-.36-.16-.56-.23-.2-.07-.38-.1-.53-.1-.1,0-.19-.02-.27-.05-.08-.03-.12-.09-.12-.18,0-.16.16-.23.49-.23.12,0,.32,0,.6.01.28,0,.57.02.89.03.32,0,.64.02.97.03s.6.01.8.01c.28,0,.66-.01,1.15-.04.49-.03,1.03-.04,1.62-.04.26,0,.39.08.39.23,0,.09-.05.14-.14.17-.09.03-.24.07-.43.12-.12.03-.21.09-.27.18-.06.09-.09.18-.09.28s.03.23.09.38c.06.15.13.32.22.51.05.14.19.41.41.8.22.4.49.86.79,1.4.3.54.63,1.1.97,1.7.35.6.67,1.16.98,1.69s.58.99.8,1.39.37.66.44.78c.03-.1.15-.33.35-.69.2-.35.43-.77.7-1.26s.55-1,.86-1.56c.3-.55.59-1.08.87-1.57s.51-.92.71-1.3c.2-.37.33-.63.4-.76.24-.54.36-.98.36-1.35,0-.14-.03-.27-.1-.39-.07-.12-.22-.21-.44-.26-.12-.03-.23-.06-.32-.09-.09-.03-.14-.08-.14-.17,0-.16.15-.23.44-.23.43,0,.85.01,1.26.04.41.03.8.04,1.18.04.14,0,.34,0,.6-.01s.53-.02.82-.03c.28,0,.55-.02.8-.03.25,0,.44-.01.56-.01.31,0,.47.07.47.21,0,.17-.16.26-.49.26-.14,0-.32.03-.53.08-.22.05-.42.13-.61.23-.28.14-.51.3-.69.48s-.42.45-.71.79c-.14.17-.35.47-.62.89-.28.42-.59.91-.93,1.45-.35.54-.7,1.12-1.06,1.74-.36.61-.7,1.2-1.02,1.75-.32.55-.6,1.05-.84,1.48-.24.43-.4.74-.47.93-.19.47-.3.91-.34,1.32-.03.42-.05.84-.05,1.27v2.12c0,.21,0,.55.01,1.04,0,.48.03,1,.06,1.55.03.38.12.7.26.96.14.26.41.41.8.47.19.03.41.06.65.08.24.02.46.03.65.03.28,0,.41.07.41.21,0,.17-.18.26-.54.26-.81,0-1.59-.01-2.33-.04-.74-.03-1.29-.04-1.63-.04-.16,0-.37,0-.63.01-.27,0-.56.02-.87.03-.31,0-.62.02-.92.03-.3,0-.57.01-.82.01-.38,0-.57-.09-.57-.26,0-.14.14-.21.41-.21.19,0,.36,0,.51-.03s.28-.04.4-.08c.26-.05.45-.21.57-.47.12-.26.2-.58.23-.96.03-.55.06-1.07.07-1.55,0-.48.01-.83.01-1.04v-2.12Z"/>
    </g>
    <g>
      <g>
        <g>
          <path class="cls-9" d="M37.86,17.97c0,4.09,3.32,7.4,7.41,7.4s7.4-3.32,7.4-7.4-3.31-7.4-7.4-7.4-7.41,3.31-7.41,7.4Z"/>
          <path class="cls-15" d="M86.74,16.92c-8.99,2.88-41.65,21.54-53.69,21.88-6.11-.16-14.66-4.73-11.67-17.5.02-.49.07-.78.07-.78-16.16,58.97,60.58.27,66.78-2.69,6.19-2.96,8.08,1.35,8.08,1.35,0,0-.57-5.15-9.56-2.26Z"/>
          <path class="cls-10" d="M58.6,25.65c-36.33,16.47-37.43-.41-37.23-4.34-2.98,12.77,5.57,17.34,11.67,17.5,12.05-.34,44.7-19,53.69-21.88,8.99-2.88,9.56,2.26,9.56,2.26,0,0,3.7-12.3-37.7,6.46Z"/>
        </g>
        <g>
          <path class="cls-17" d="M9.73,68.35c8.99-2.89,41.65-21.55,53.69-21.89,6.11.16,14.66,4.73,11.68,17.5-.02.49-.07.78-.07.78,16.16-58.97-60.59-.27-66.78,2.69-6.19,2.96-8.08-1.35-8.08-1.35,0,0,.57,5.15,9.56,2.26Z"/>
          <path class="cls-8" d="M37.87,59.63c36.33-16.47,37.43.41,37.23,4.34,2.98-12.77-5.57-17.34-11.68-17.5-12.04.34-44.7,19-53.69,21.89C.74,71.24.17,66.09.17,66.09c0,0-3.7,12.3,37.7-6.46Z"/>
        </g>
      </g>
      <path class="cls-24" d="M48.24,1.81c12.15,0,23.05,5.31,30.53,13.73.64-.2,1.27-.38,1.88-.56C72.82,5.82,61.2,0,48.24,0,24.72,0,5.6,19.13,5.6,42.64c0,7.5,1.96,14.56,5.38,20.69.47-.31.98-.65,1.5-1-3.22-5.84-5.06-12.55-5.06-19.69C7.41,20.09,25.69,1.81,48.24,1.81Z"/>
      <path class="cls-25" d="M13.8,61.45c-3.06-5.59-4.81-12-4.81-18.81C8.99,21,26.6,3.39,48.24,3.39c11.4,0,21.67,4.89,28.85,12.68.57-.19,1.13-.36,1.68-.53C71.28,7.12,60.38,1.81,48.24,1.81,25.69,1.81,7.41,20.09,7.41,42.64c0,7.14,1.84,13.85,5.06,19.69.2-.13.4-.26.6-.4.24-.16.48-.32.73-.49Z"/>
      <path class="cls-14" d="M85.5,21.95c-.47.31-.98.65-1.5,1,3.22,5.84,5.06,12.55,5.06,19.7,0,22.55-18.28,40.83-40.83,40.83-12.15,0-23.05-5.31-30.53-13.73-.64.2-1.27.38-1.89.56,7.83,9.16,19.45,14.98,32.41,14.98,23.51,0,42.64-19.13,42.64-42.64,0-7.5-1.96-14.56-5.38-20.69Z"/>
      <path class="cls-4" d="M48.24,83.47c22.55,0,40.83-18.28,40.83-40.83,0-7.14-1.84-13.85-5.06-19.7-.2.13-.4.26-.6.4-.24.16-.49.32-.73.49,3.06,5.59,4.81,12,4.81,18.81,0,21.64-17.6,39.24-39.24,39.24-11.4,0-21.68-4.89-28.85-12.68-.57.19-1.13.36-1.68.53,7.48,8.42,18.38,13.73,30.53,13.73Z"/>
    </g>
  </g>
  <g id="Layer_4" data-name="Layer 4">
    <g>
      <path class="cls-26" d="M119.34,31.02c-2.75-2.92-5.91-6.73-8.95-10.39-.62-.7-.9-.88-1.44-.85v7.15c0,3.21.29,3.45,3.04,3.7v.39h-9.24v-.39c2.59-.25,2.96-.49,2.96-3.7v-14.41c0-3.24-.29-3.45-2.96-3.73v-.39h9.11v.39c-2.67.28-2.91.49-2.91,3.73v6.73c.62-.21,1.4-.77,2.22-1.55,2.01-1.9,4.72-4.51,6.81-6.9,1.15-1.3.94-1.66-.86-1.87l-.94-.11v-.42h8.21v.39c-2.42.25-3.28.53-5.83,2.92-1.4,1.3-3.9,3.66-6.49,6.16,3.04,3.66,6.65,7.71,8.62,9.93,2.05,2.15,2.42,2.57,4.35,2.82v.39h-5.71Z"/>
      <path class="cls-18" d="M149.34,8.79c-2.26.25-2.83.67-3,2.18-.08,1.02-.21,2.85-.21,5.74v4.02c0,3.8-.66,6.59-2.67,8.56-1.64,1.55-3.98,2.18-6.2,2.18-1.93,0-4.06-.42-5.58-1.51-2.13-1.55-2.91-3.98-2.91-7.71v-9.72c0-3.28-.29-3.45-2.91-3.73v-.39h9.11v.39c-2.63.25-2.91.46-2.91,3.73v8.74c0,4.26.99,8.77,6.4,8.77,5.95,0,6.61-5.32,6.61-10.11v-3.21c0-2.85-.08-4.72-.21-5.81-.16-1.44-.66-1.9-3.45-2.11v-.39h7.92v.39Z"/>
      <path class="cls-28" d="M174.47,8.79c-2.22.18-2.79.6-2.91,2.15-.08,1.02-.25,2.89-.25,5.99v14.44h-.78l-15.11-18.67h-.08v9.65c0,3.1.16,4.97.25,6.02.12,1.62.9,2.08,3.65,2.25v.39h-8.37v-.39c2.42-.18,3.08-.6,3.24-2.32.08-.99.21-2.85.21-5.95v-8.59c0-2.11-.04-2.61-.7-3.42-.74-.95-1.23-1.37-3.24-1.55v-.39h5.42l14.41,17.29h.08v-8.77c0-3.1-.12-5.04-.21-5.95-.16-1.59-.86-2.04-3.49-2.18v-.39h7.88v.39Z"/>
      <path class="cls-22" d="M188.35,31.02v-.39c2.3-.25,2.71-.6,2.22-1.9-.49-1.44-1.31-3.84-2.3-6.45h-7.1c-.57,1.48-1.35,3.73-1.93,5.57-.7,2.18-.33,2.5,2.46,2.78v.39h-7.47l.04-.39c2.18-.25,2.67-.53,3.86-3.45l7.59-18.99.66-.21c2.3,6.23,4.56,12.54,7.22,19.23,1.15,2.92,1.52,3.17,3.86,3.42v.39h-9.11ZM184.86,12.63h-.12c-1.11,2.89-2.22,5.88-3.24,8.74h6.44l-3.08-8.74Z"/>
    </g>
  </g>
</svg>