<svg viewBox="0 0 97.0854 86.01201716738197" xmlns:xlink="http://www.w3.org/1999/xlink" xmlns="http://www.w3.org/2000/svg" data-name="Layer 1" id="Layer_1" style="max-height: 500px" width="97.0854" height="86.01201716738197">
  <defs>
    <style>
      .cls-1 {
        fill: url(#radial-gradient-9);
      }

      .cls-2 {
        fill: url(#radial-gradient-5);
      }

      .cls-3 {
        fill: url(#radial-gradient);
      }

      .cls-4 {
        fill: url(#radial-gradient-3);
      }

      .cls-5 {
        fill: url(#radial-gradient-8);
      }

      .cls-6 {
        fill: url(#radial-gradient-2);
      }

      .cls-7 {
        fill: url(#radial-gradient-4);
      }

      .cls-8 {
        fill: url(#radial-gradient-6);
      }

      .cls-9 {
        fill: url(#radial-gradient-7);
      }
    </style>
    <radialGradient gradientUnits="userSpaceOnUse" r="12.32" fy="14.8" fx="41.98" cy="14.8" cx="41.98" id="radial-gradient">
      <stop stop-color="#91c83e" offset="0"/>
      <stop stop-color="#699f39" offset=".36"/>
      <stop stop-color="#417533" offset=".78"/>
      <stop stop-color="#326632" offset="1"/>
    </radialGradient>
    <radialGradient xlink:href="#radial-gradient" r="57.26" fy="23.62" fx="67.99" cy="23.62" cx="67.99" id="radial-gradient-2"/>
    <radialGradient xlink:href="#radial-gradient" r="41.41" fy="36.52" fx="37" cy="36.52" cx="37" id="radial-gradient-3"/>
    <radialGradient gradientUnits="userSpaceOnUse" gradientTransform="translate(412.17 179.74) rotate(-180)" r="57.26" fy="118.09" fx="383.69" cy="118.09" cx="383.69" id="radial-gradient-4">
      <stop stop-color="#1f9dd9" offset="0"/>
      <stop stop-color="#272971" offset="1"/>
    </radialGradient>
    <radialGradient xlink:href="#radial-gradient-4" r="41.41" fy="130.99" fx="352.71" cy="130.99" cx="352.71" id="radial-gradient-5"/>
    <radialGradient xlink:href="#radial-gradient-4" gradientTransform="matrix(1,0,0,1,0,0)" r="68.98" fy="30.26" fx="6.39" cy="30.26" cx="6.39" id="radial-gradient-6"/>
    <radialGradient xlink:href="#radial-gradient-4" gradientTransform="matrix(1,0,0,1,0,0)" r="59.97" fy="2.37" fx="59.73" cy="2.37" cx="59.73" id="radial-gradient-7"/>
    <radialGradient xlink:href="#radial-gradient" r="55.35" fy="87.75" fx="56.08" cy="87.75" cx="56.08" id="radial-gradient-8"/>
    <radialGradient xlink:href="#radial-gradient" r="51.53" fy="35.13" fx="92.25" cy="35.13" cx="92.25" id="radial-gradient-9"/>
  </defs>
  <g>
    <g>
      <path d="M37.86,17.97c0,4.09,3.32,7.4,7.41,7.4s7.4-3.32,7.4-7.4-3.31-7.4-7.4-7.4-7.41,3.31-7.41,7.4Z" class="cls-3"/>
      <path d="M86.74,16.92c-8.99,2.88-41.65,21.54-53.69,21.88-6.11-.16-14.66-4.73-11.67-17.5.02-.49.07-.78.07-.78-16.16,58.97,60.58.27,66.78-2.69,6.19-2.96,8.08,1.35,8.08,1.35,0,0-.57-5.15-9.56-2.26Z" class="cls-6"/>
      <path d="M58.6,25.65c-36.33,16.47-37.43-.41-37.23-4.34-2.98,12.77,5.57,17.34,11.67,17.5,12.05-.34,44.7-19,53.69-21.88,8.99-2.88,9.56,2.26,9.56,2.26,0,0,3.7-12.3-37.7,6.46Z" class="cls-4"/>
    </g>
    <g>
      <path d="M9.73,68.35c8.99-2.89,41.65-21.55,53.69-21.89,6.11.16,14.66,4.73,11.68,17.5-.02.49-.07.78-.07.78,16.16-58.97-60.59-.27-66.78,2.69-6.19,2.96-8.08-1.35-8.08-1.35,0,0,.57,5.15,9.56,2.26Z" class="cls-7"/>
      <path d="M37.87,59.63c36.33-16.47,37.43.41,37.23,4.34,2.98-12.77-5.57-17.34-11.68-17.5-12.04.34-44.7,19-53.69,21.89C.74,71.24.17,66.09.17,66.09c0,0-3.7,12.3,37.7-6.46Z" class="cls-2"/>
    </g>
  </g>
  <path d="M48.24,1.81c12.15,0,23.05,5.31,30.53,13.73.64-.2,1.27-.38,1.88-.56C72.82,5.82,61.2,0,48.24,0,24.72,0,5.6,19.13,5.6,42.64c0,7.5,1.96,14.56,5.38,20.69.47-.31.98-.65,1.5-1-3.22-5.84-5.06-12.55-5.06-19.69C7.41,20.09,25.69,1.81,48.24,1.81Z" class="cls-8"/>
  <path d="M13.8,61.45c-3.06-5.59-4.81-12-4.81-18.81C8.99,21,26.6,3.39,48.24,3.39c11.4,0,21.67,4.89,28.85,12.68.57-.19,1.13-.36,1.68-.53C71.28,7.12,60.38,1.81,48.24,1.81,25.69,1.81,7.41,20.09,7.41,42.64c0,7.14,1.84,13.85,5.06,19.69.2-.13.4-.26.6-.4.24-.16.48-.32.73-.49Z" class="cls-9"/>
  <path d="M85.5,21.95c-.47.31-.98.65-1.5,1,3.22,5.84,5.06,12.55,5.06,19.7,0,22.55-18.28,40.83-40.83,40.83-12.15,0-23.05-5.31-30.53-13.73-.64.2-1.27.38-1.89.56,7.83,9.16,19.45,14.98,32.41,14.98,23.51,0,42.64-19.13,42.64-42.64,0-7.5-1.96-14.56-5.38-20.69Z" class="cls-5"/>
  <path d="M48.24,83.47c22.55,0,40.83-18.28,40.83-40.83,0-7.14-1.84-13.85-5.06-19.7-.2.13-.4.26-.6.4-.24.16-.49.32-.73.49,3.06,5.59,4.81,12,4.81,18.81,0,21.64-17.6,39.24-39.24,39.24-11.4,0-21.68-4.89-28.85-12.68-.57.19-1.13.36-1.68.53,7.48,8.42,18.38,13.73,30.53,13.73Z" class="cls-1"/>
</svg>